<?xml version="1.0" standalone="no"?>
<!DOCTYPE svg PUBLIC "-//W3C//DTD SVG 1.1//EN" "http://www.w3.org/Graphics/SVG/1.1/DTD/svg11.dtd" >
<svg xmlns="http://www.w3.org/2000/svg">
<metadata>
This is a custom SVG webfont generated by Font Squirrel.
Copyright   : Copyright c WC Fonts 2005 All rights reserved
Designer    : WC Fonts
Foundry     : WC Fonts
</metadata>
<defs>
<font id="webfontC8JmoTNk" horiz-adv-x="200" >
<font-face units-per-em="2048" ascent="1638" descent="-410" />
<missing-glyph horiz-adv-x="806" />
<glyph unicode=" "  horiz-adv-x="806" />
<glyph unicode="&#x09;" horiz-adv-x="806" />
<glyph unicode="&#xa0;" horiz-adv-x="806" />
<glyph unicode="!" horiz-adv-x="696" d="M182 51v170q0 20 15.5 34.5t35.5 14.5h199q20 0 35.5 -14t15.5 -35v-170q0 -20 -15 -34.5t-36 -14.5h-199q-20 0 -35.5 14.5t-15.5 34.5zM182 743v893q0 20 15.5 36t35.5 16h199q20 0 35.5 -15.5t15.5 -36.5v-893q0 -59 -6 -100l-14 -104q-4 -20 -20.5 -35t-36.5 -15 h-148q-20 0 -36.5 14.5t-20.5 35.5l-13 104q-6 41 -6 100z" />
<glyph unicode="&#x22;" horiz-adv-x="841" d="M76 1442v190q0 20 14 35.5t35 15.5h201q23 0 37 -14t14 -37v-190q0 -45 -8 -103l-13 -102q-4 -23 -20.5 -37t-36.5 -14h-147q-20 0 -37 14t-21 37l-12 102q-6 44 -6 103zM461 1442v190q0 23 15.5 37t35.5 14h199q23 0 37 -14t14 -37v-190q0 -6 -2 -46t-4 -57l-15 -102 q-4 -23 -20 -37t-37 -14h-147q-20 0 -37 14t-21 37l-12 102q-6 44 -6 103z" />
<glyph unicode="#" horiz-adv-x="675" d="M49 621v49q0 37 41 51t41 51v137q0 37 -41 51.5t-41 51.5v47q0 37 41 51t41 51v45q0 23 14.5 37t36.5 14h47q20 0 36 -14t16 -37v-45q0 -37 10 -51t10 -51v-47q0 -37 -10 -51.5t-10 -51.5v-137q0 -51 10 -51t10 -51v-49q0 -37 -10 -51.5t-10 -51.5v-49q0 -23 -15.5 -37 t-36.5 -14h-47q-23 0 -37 14t-14 37v49q0 37 -41 51.5t-41 51.5zM377 621v49q0 35 9 49t9 53v137q0 39 -9 53.5t-9 49.5v47q0 37 10 51t10 51v45q0 23 14.5 37t37.5 14h47q20 0 35.5 -14t15.5 -37v-45q0 -37 40 -51t40 -51v-47q0 -23 -11.5 -37t-28 -14t-28.5 -15.5 t-12 -36.5v-137q0 -37 40 -51t40 -51v-49q0 -37 -40 -51.5t-40 -51.5v-49q0 -23 -15.5 -37t-35.5 -14h-50q-20 0 -35.5 14t-15.5 37v49q0 39 -9 53.5t-9 49.5z" />
<glyph unicode="$" horiz-adv-x="1198" d="M86 424v61q0 23 14.5 37.5t36.5 14.5h199q20 0 35.5 -14.5t15.5 -37.5v-10q0 -20 11.5 -35.5t27.5 -15.5t26.5 15.5t10.5 35.5v12q0 20 14.5 36t36.5 16h201q20 0 34.5 -15.5t14.5 -36.5v-12q0 -20 12 -35.5t28.5 -15.5t28 15.5t11.5 35.5v12q0 20 14 36t37 16h199 q20 0 35.5 -15.5t15.5 -36.5v-12v-16v-35q0 -125 -88 -213t-211 -88h-31q-20 0 -35.5 -14.5t-15.5 -36.5v-27q0 -20 -14.5 -35.5t-34.5 -15.5h-201q-23 0 -37 15.5t-14 35.5v27q0 20 -10.5 35.5t-26.5 15.5h-39q-125 0 -213 88t-88 213zM86 989h35h725q123 0 211 -88 t88 -213h-66h-692q-111 0 -205 81t-94 192v4q-2 8 -2 24zM86 1186v61q0 125 88 213t213 88h39q14 0 25.5 15.5t11.5 35.5v29q0 20 15.5 34.5t35.5 14.5h201q20 0 34.5 -14t14.5 -35v-29q0 -20 15.5 -35.5t35.5 -15.5h31q123 0 211 -88t88 -213v-33v-16v-14 q0 -20 -15.5 -35.5t-35.5 -15.5h-199q-20 0 -35.5 15t-15.5 36v14q0 20 -11.5 34.5t-28 14.5t-28.5 -14t-12 -35v-14q0 -20 -14.5 -35.5t-34.5 -15.5h-201q-20 0 -35.5 15t-15.5 36v14q0 20 -11.5 34.5t-25.5 14.5q-16 0 -27.5 -14t-11.5 -35v-12q0 -20 -15.5 -35.5 t-35.5 -15.5h-199q-20 0 -35.5 15.5t-15.5 35.5z" />
<glyph unicode="%" horiz-adv-x="1314" d="M55 1432q0 94 54.5 164.5t140.5 93.5v-516q-86 20 -140.5 93t-54.5 165zM201 31q0 4 4 16l731 1598q23 45 72 45h88q33 0 32 -27q0 -12 -4 -18l-733 -1598q-8 -18 -29.5 -31.5t-42.5 -13.5h-86q-32 0 -32 29zM406 1176v514q82 -29 134 -99.5t52 -159t-52 -158.5t-134 -97 zM723 256q0 94 55.5 166t143.5 96v-516q-86 23 -142.5 92.5t-56.5 161.5zM1073 4v510q82 -27 134.5 -97.5t52.5 -160.5q0 -86 -52.5 -155.5t-134.5 -96.5z" />
<glyph unicode="&#x26;" horiz-adv-x="1325" d="M74 299l2 356v52q0 125 96 208q-57 53 -73.5 124t-16.5 192v145q0 119 82 205t198 94v-1675q-121 4 -204.5 91t-83.5 208zM512 51v199q0 20 14.5 35.5t36.5 15.5h123q23 0 37 15.5t14 35.5v131q0 20 14.5 36t36.5 16h199q20 0 35.5 -15.5t15.5 -36.5v-184 q0 -125 -88 -212t-211 -87h-176q-23 0 -37 14t-14 37zM512 737v197q0 20 14.5 35.5t36.5 15.5h123q23 0 37 15.5t14 35.5v99q0 20 14.5 35.5t36.5 15.5h197q23 0 37 -15.5t14 -35.5v-99q0 -20 14.5 -35.5t36.5 -15.5h91q23 0 37 -15.5t14 -35.5v-197q0 -20 -14.5 -35.5 t-36.5 -15.5h-615q-23 0 -37 15.5t-14 35.5zM512 1425v199q0 23 14.5 37t36.5 14h158q20 0 35.5 -14t15.5 -37v-199q0 -20 -15.5 -35.5t-35.5 -15.5h-158q-23 0 -37 15.5t-14 35.5z" />
<glyph unicode="'" horiz-adv-x="677" d="M123 1219q0 8 2 12l123 395q6 20 25.5 33.5t41.5 13.5h199q37 0 37 -33q0 -8 -2 -14l-123 -395q-14 -47 -66 -47h-200q-37 0 -37 35z" />
<glyph unicode="(" horiz-adv-x="1046" d="M258 242l6 1210q2 121 89 210t210 89h137q20 0 36 -15.5t16 -35.5v-201q0 -20 -15.5 -34.5t-36.5 -14.5h-84q-20 0 -35.5 -15.5t-15.5 -35.5q0 -33 -1 -228.5t-1 -326.5q0 -129 1 -324.5t1 -228.5q0 -20 14.5 -34.5t36.5 -14.5h84q20 0 36 -15.5t16 -36.5v-200 q0 -20 -15.5 -34.5t-36.5 -14.5h-8h-61h-72q-125 0 -213 88t-88 213z" />
<glyph unicode=")" horiz-adv-x="999" d="M215 -8v201q0 20 15.5 34.5t35.5 14.5h84q20 0 35.5 15t15.5 36q0 33 1 228.5t1 326.5q0 129 -1 324.5t-1 228.5q0 20 -14 34.5t-37 14.5h-84q-20 0 -35.5 15.5t-15.5 35.5v201q0 20 15.5 34.5t35.5 14.5h8h134q125 0 214 -88t87 -213l-7 -1210q0 -121 -88 -210t-211 -89 h-137q-20 0 -35.5 15.5t-15.5 35.5z" />
<glyph unicode="*" horiz-adv-x="755" d="M94 1446q0 10 2 14l15 45q12 35 51 35q10 0 14 -2l82 -27q4 -2 14 -2q33 0 33 37v86q0 20 15.5 35.5t35.5 15.5h52q20 0 34.5 -15t14.5 -36v-86q0 -37 37 -37q8 0 12 2l84 27q12 4 20 4q20 0 33.5 -16.5t18 -38t10.5 -41.5q2 -2 2 -8q0 -29 -39 -43l-82 -29 q-27 -6 -27 -33q0 -14 9 -24l49 -68q10 -14 10 -29q0 -27 -23 -43l-39 -28q-10 -8 -28 -8q-27 0 -41 20l-51 70q-10 16 -28.5 16t-33.5 -16l-51 -72q-16 -20 -41 -21q-14 0 -31 11l-39 28q-20 16 -20 41q0 14 10 29l51 70q8 10 9 24q0 27 -27 35l-82 27q-35 14 -35 51z" />
<glyph unicode="+" horiz-adv-x="1044" d="M45 754v198q0 23 14.5 37.5t36.5 14.5h215q20 0 35.5 14t15.5 37v268q0 20 15.5 35.5t36.5 15.5h198q23 0 37.5 -15.5t14.5 -35.5v-268q0 -23 14 -37t37 -14h227q20 0 35.5 -14.5t15.5 -37.5v-198q0 -20 -15 -36t-36 -16h-227q-23 0 -37 -15t-14 -36v-272 q0 -23 -14.5 -37t-37.5 -14h-198q-20 0 -36 14t-16 37v272q0 20 -15 35.5t-36 15.5h-215q-23 0 -37 16t-14 36z" />
<glyph unicode="," horiz-adv-x="677" d="M72 -131q0 10 2 14l123 396q6 20 25.5 33.5t39.5 13.5h201q37 0 37 -33q0 -10 -2 -14l-123 -396q-6 -20 -25.5 -33.5t-40.5 -13.5h-200q-37 0 -37 33z" />
<glyph unicode="-" horiz-adv-x="841" d="M41 756v198q0 20 14.5 36t36.5 16h651q23 0 37.5 -15.5t14.5 -36.5v-198q0 -23 -14.5 -37t-37.5 -14h-651q-23 0 -37 14t-14 37z" />
<glyph unicode="." horiz-adv-x="614" d="M152 49v215q0 23 14 37t37 14h196q23 0 37.5 -14t14.5 -37v-215q0 -20 -14.5 -35.5t-37.5 -15.5h-196q-23 0 -37 15.5t-14 35.5z" />
<glyph unicode="/" horiz-adv-x="1247" d="M23 -172q0 4 4 20l858 1889q23 47 71 47h230q35 0 35 -29q0 -12 -4 -18l-861 -1889q-23 -47 -73 -47h-228q-32 0 -32 27z" />
<glyph unicode="0" horiz-adv-x="1351" d="M147 305v1075q0 125 88.5 213t210.5 88h97q20 0 34.5 -15t14.5 -36v-200q0 -20 -14.5 -35t-34.5 -15h-45q-20 0 -36 -15t-16 -36v-971q0 -20 15.5 -35.5t36.5 -15.5h45q20 0 34.5 -15.5t14.5 -35.5v-199q0 -20 -14.5 -35.5t-34.5 -15.5h-97q-123 0 -211 87t-88 212z M737 57v199q0 23 14.5 37t36.5 14h43q20 0 36 14.5t16 36.5v971q0 20 -15.5 35.5t-36.5 15.5h-43q-20 0 -35.5 14.5t-15.5 35.5v200q0 20 15.5 35.5t35.5 15.5h97q123 0 211 -88t88 -213v-1075q0 -125 -88 -212t-211 -87h-97q-23 0 -37 15.5t-14 35.5z" />
<glyph unicode="1" horiz-adv-x="1007" d="M186 1436v200q0 20 14.5 36t35.5 16h368q20 0 35.5 -15.5t15.5 -36.5v-1284q0 -20 14.5 -34.5t35.5 -14.5h55q20 0 35.5 -15.5t15.5 -35.5v-201q0 -20 -15.5 -35.5t-35.5 -15.5h-520q-20 0 -36 15.5t-16 35.5v201q0 20 15.5 35.5t36.5 15.5h63q20 0 35.5 14.5t15.5 34.5 v983q0 20 -15 35.5t-36 15.5h-67q-20 0 -35 15t-15 35z" />
<glyph unicode="2" horiz-adv-x="1202" d="M143 51v49v101v78q0 53 35 88l340 362q12 12 21 12q14 0 14 -24v-365q0 -20 15.5 -35.5t35.5 -15.5h410q20 0 35.5 -14.5t15.5 -34.5v-201q0 -20 -15.5 -35.5t-35.5 -15.5h-819q-20 0 -36 15.5t-16 35.5zM143 1327v10v39q0 123 88 212t213 89h58q20 0 35.5 -15t15.5 -36 v-201q0 -20 -15.5 -34.5t-35.5 -14.5h-6q-20 0 -35 -15t-15 -36v-156q0 -20 -15 -35.5t-36 -15.5h-200q-20 0 -35 14.5t-15 34.5zM702 537v342q0 53 35 88l43 45q35 39 35 88v225q0 20 -15.5 35.5t-35.5 15.5h-10q-20 0 -36 14.5t-16 34.5v201q0 20 15.5 35.5t36.5 15.5h12 q2 0 6 -1t6 -1l39 2q125 0 212 -88t87 -213l2 -301l-2 -2l2 -92q0 -49 -35 -88l-346 -369q-12 -12 -20 -12q-15 0 -15 25z" />
<glyph unicode="3" horiz-adv-x="1267" d="M145 299v209q0 20 15.5 35.5t36.5 15.5l198 -2q23 0 37 -14.5t14 -36.5v-156q0 -20 15.5 -34.5t36.5 -14.5h6q20 0 35.5 -15.5t15.5 -35.5v-201q0 -20 -15.5 -34.5t-35.5 -14.5h-8h-21h-31q-125 0 -212 87t-87 212zM145 1174v98v110q0 123 87 211t212 88h60 q20 0 35.5 -15t15.5 -36v-198q0 -23 -15.5 -37.5t-35.5 -14.5h-6q-20 0 -36 -15t-16 -36v-155q0 -20 -15 -35t-36 -15l-198 -2q-20 0 -36 14.5t-16 37.5zM592 754v200q0 20 15.5 36t35.5 16h8q59 4 92 30l33 27q39 33 39 82v184q0 20 -15.5 35.5t-35.5 15.5h-6 q-20 0 -35.5 14.5t-15.5 37.5v198q0 20 15 35.5t36 15.5h8h6h45q123 0 209 -85t90 -205l-2 -11v-32l4 -267v-80q0 -53 -39 -81l-45 -35q-14 -12 -14 -30.5t16 -33.5l43 -33q43 -39 43 -79v-74v-260q-2 -18 -2 -51l-2 -15q-2 0 -2 -10q0 -125 -87 -212t-212 -87h-59 q-20 0 -35.5 14.5t-15.5 34.5v201q0 20 15 35.5t36 15.5h6q20 0 35.5 14.5t15.5 34.5v168q0 109 -33.5 148t-117.5 39h-21q-20 0 -35.5 14.5t-15.5 34.5z" />
<glyph unicode="4" horiz-adv-x="1308" d="M102 408v198q0 20 14.5 35.5t37.5 15.5h489q20 0 35.5 -14t15.5 -35v-200q0 -20 -15 -36t-36 -16h-491q-20 0 -35 16t-15 36zM158 831q0 8 6 19l493 788q25 43 78 43h252q31 0 31 -22q0 -8 -6 -21l-494 -788q-27 -43 -76 -43h-254q-30 -1 -30 24zM848 49v899 q0 20 14.5 35.5t34.5 15.5h201q20 0 35.5 -15t15.5 -36v-899q0 -20 -15.5 -35.5t-35.5 -15.5h-201q-20 0 -34.5 15.5t-14.5 35.5z" />
<glyph unicode="5" horiz-adv-x="1267" d="M143 299v82q0 20 15.5 34.5t36.5 14.5h198q20 0 35.5 -14.5t15.5 -34.5v-29q0 -20 15.5 -35.5t36.5 -15.5h20q20 0 35.5 -14.5t15.5 -34.5v-201q0 -23 -15 -37t-36 -14h-22h-7h-45q-121 0 -210 88t-89 211zM143 750v630q0 125 88 212t211 87h74q20 0 35.5 -14t15.5 -37 v-198q0 -20 -15 -36t-36 -16h-20q-20 0 -36 -15t-16 -36v-276q0 -23 15.5 -37.5t36.5 -14.5h20q20 0 35.5 -14t15.5 -37v-198q0 -20 -15 -36t-36 -16h-321q-23 0 -37.5 16t-14.5 36zM719 51v201q0 20 15.5 34.5t35.5 14.5h31q20 0 34.5 15.5t14.5 35.5v295q0 20 -14.5 35.5 t-34.5 15.5h-31q-20 0 -35.5 15.5t-15.5 36.5v196q0 20 15.5 35.5t35.5 15.5h41q51 0 51 2q119 -4 203 -88t86 -202v-9v-401q0 -121 -88 -210t-211 -89h-82q-20 0 -35.5 14t-15.5 37zM719 1430v198q0 23 15.5 37t35.5 14h274q20 0 36 -14t16 -37v-198q0 -20 -15.5 -36 t-36.5 -16h-274q-20 0 -35.5 16t-15.5 36z" />
<glyph unicode="6" horiz-adv-x="1267" d="M141 301v1081q0 125 87 212t212 87h84q20 0 35.5 -15t15.5 -36v-198q0 -23 -15 -37.5t-36 -14.5h-30q-23 0 -37.5 -14t-14.5 -37v-276q0 -20 14.5 -36t37.5 -16h30q20 0 35.5 -15t15.5 -36v-198q0 -23 -15 -37.5t-36 -14.5h-30q-23 0 -37.5 -14t-14.5 -37v-297 q0 -20 15.5 -34.5t36.5 -14.5h30q20 0 35.5 -14.5t15.5 -36.5v-201q0 -20 -15 -34.5t-36 -14.5h-18h-66q-125 0 -212 88t-87 211zM725 51v201q0 23 14.5 37t36.5 14h19q20 0 35.5 14.5t15.5 34.5v297q0 23 -15.5 37t-35.5 14h-19q-23 0 -37 14.5t-14 37.5v196q0 23 14.5 37 t36.5 14h82q119 -2 204 -89t85 -208v-401q0 -123 -87 -211t-212 -88h-72q-20 0 -35.5 14.5t-15.5 34.5zM725 1432v198q0 20 14.5 35.5t36.5 15.5h254q23 0 37 -15t14 -36v-198q0 -23 -14 -37.5t-37 -14.5h-254q-23 0 -37 14.5t-14 37.5z" />
<glyph unicode="7" horiz-adv-x="1409" d="M137 1430v198q0 23 15.5 37t35.5 14h1053q20 0 35.5 -14t15.5 -37v-190q4 -29 1 -42.5t-10 -15.5t-46 -2h-1049q-20 0 -35.5 16t-15.5 36zM485 51v512q0 55 29 94l334 527q25 43 78 43h237q29 0 29 -23q0 -8 -6 -20l-373 -600q-27 -41 -27 -95v-438q0 -23 -14 -37 t-37 -14h-198q-20 0 -36 14t-16 37z" />
<glyph unicode="8" horiz-adv-x="1267" d="M145 1008l2 -2v38v140v196q0 125 88.5 212t210.5 87h66q20 0 34.5 -15t14.5 -36v-198q0 -20 -14.5 -36t-34.5 -16h-12q-20 0 -35.5 -15t-15.5 -36v-166q-6 -23 -1 -61.5t41 -65.5l27 -22q12 -10 29 -21l14 -10h2v-256l-2 -51l-43 -31l-27 -22q-41 -33 -40 -82v-189 q0 -20 15 -35.5t36 -15.5h12q20 0 34.5 -15.5t14.5 -35.5v-199q0 -20 -14.5 -35.5t-34.5 -15.5h-14h-6h-46q-121 0 -210 88t-89 211v192v103v90q0 51 39 84l39 31q16 10 17 30q0 23 -17 33l-39 31q-18 16 -27 34.5t-10.5 31t-1.5 40.5zM713 49v199q0 20 14 35.5t35 15.5h14 q45 0 52.5 67.5t-1.5 118.5v7q6 45 1 73.5t-40 55.5l-28 22q-37 31 -43 31h-4v51v256h4l43 31l28 22q37 29 41.5 90.5t-2.5 253.5h-65q-20 0 -34.5 15.5t-14.5 36.5v198q0 20 14 35.5t35 15.5h16h15h34q123 0 212 -88t89 -211v-268v-51v-88q0 -49 -38 -82l-39 -31 q-20 -16 -21 -35q0 -14 12 -22l2 -2q37 -27 53.5 -44.5t24.5 -37t7 -44t-1 -65.5v-4v-309q0 -123 -88 -211t-213 -88h-65q-20 0 -34.5 15.5t-14.5 35.5z" />
<glyph unicode="9" horiz-adv-x="1267" d="M133 981v401q0 123 88 210t213 87h76q20 0 35.5 -14t15.5 -35v-200q0 -20 -15.5 -35t-35.5 -15h-25q-20 0 -35.5 -15t-15.5 -36v-295q0 -20 15.5 -35.5t35.5 -15.5h25q20 0 35.5 -14.5t15.5 -34.5v-201q0 -20 -15.5 -35.5t-35.5 -15.5h-25h-51q-123 0 -212 88t-89 211z M246 51v201q0 20 14 34.5t35 14.5h215q20 0 35.5 -14.5t15.5 -34.5v-201q0 -20 -15.5 -35.5t-35.5 -15.5h-215q-20 0 -34.5 15.5t-14.5 35.5zM709 51v201q0 20 15 34.5t36 14.5h28q20 0 35 15.5t15 35.5v281q0 20 -14.5 34.5t-35.5 14.5h-28q-20 0 -35.5 15.5t-15.5 35.5 v201q0 20 15 34.5t36 14.5h28q20 0 35 15.5t15 35.5v295q0 20 -14.5 35.5t-35.5 15.5h-28q-20 0 -35.5 14.5t-15.5 35.5v200q0 20 15 34.5t36 14.5h31h4h47q121 0 207 -85t90 -205v-7v-350v-100v-633q0 -121 -86 -210t-211 -89h-82q-20 0 -35.5 15.5t-15.5 35.5z" />
<glyph unicode=":" horiz-adv-x="655" d="M158 723v217q0 20 15 34.5t36 14.5h199q20 0 35.5 -14t15.5 -35v-217q0 -20 -15.5 -35.5t-35.5 -15.5h-201q-20 0 -34.5 15.5t-14.5 35.5zM160 51v217q0 20 14 35.5t35 15.5h199q20 0 35.5 -15t15.5 -36v-217q0 -20 -15.5 -34.5t-35.5 -14.5h-199q-20 0 -34.5 14.5 t-14.5 34.5z" />
<glyph unicode=";" horiz-adv-x="722" d="M78 -129q0 10 2 14l123 396q6 20 26.5 33.5t40.5 13.5h199q39 0 39 -31q0 -4 -4 -16l-123 -396q-6 -20 -25.5 -34.5t-40.5 -14.5h-198q-39 0 -39 35zM217 649l2 215q0 20 15.5 35.5t35.5 15.5h197q20 0 35.5 -15t15.5 -36v-215q0 -23 -15.5 -37t-35.5 -14h-199 q-23 0 -37 14t-14 37z" />
<glyph unicode="&#x3c;" horiz-adv-x="1210" d="M131 723v192q0 51 41 78l879 600q10 8 22 9q20 0 21 -29v-264q0 -51 -43 -80l-559 -383q-16 -10 -17 -27q0 -18 17 -31l559 -380q47 -31 43 -78v-264q0 -29 -23 -29q-8 0 -20 6l-879 600q-41 31 -41 80z" />
<glyph unicode="=" horiz-adv-x="1157" d="M100 362v199q0 20 14.5 35.5t35.5 15.5h854q20 0 35.5 -15t15.5 -36v-199q0 -20 -15.5 -35.5t-35.5 -15.5h-854q-20 0 -35 15.5t-15 35.5zM100 872v199q0 20 14.5 35.5t35.5 15.5h854q20 0 35.5 -15t15.5 -36v-199q0 -20 -15.5 -35.5t-35.5 -15.5h-854q-20 0 -35 15.5 t-15 35.5z" />
<glyph unicode="&#x3e;" horiz-adv-x="1210" d="M129 72v262q0 53 43 80l559 383q16 10 16.5 28.5t-16.5 28.5l-559 381q-43 31 -43 80v264q0 29 23 29q12 0 20 -9l879 -600q43 -27 43 -79v-191q0 -49 -43 -80l-879 -600q-8 -6 -20 -6q-23 0 -23 29z" />
<glyph unicode="?" horiz-adv-x="1392" d="M147 1311v14v55q0 125 87.5 212t211.5 87h84q23 0 37.5 -14t14.5 -37v-198q0 -20 -14.5 -36t-37.5 -16h-30q-20 0 -35.5 -15t-15.5 -36v-14q0 -23 -15.5 -37t-36.5 -14l-198 -2q-23 0 -37.5 15.5t-14.5 35.5zM416 51v168q0 23 15 37t36 14h199q23 0 37 -14t14 -37v-168 q0 -23 -14.5 -37t-36.5 -14h-199q-20 0 -35.5 14t-15.5 37zM416 543v61v90q0 123 88 213t211 88l127 -2q23 0 37 15.5t14 35.5v283q0 20 -14.5 35.5t-36.5 15.5h-60q-20 0 -35.5 15.5t-15.5 36.5v198q0 23 15.5 37t35.5 14h52h61q123 0 211 -88t88 -211v-217v-102v-70 q0 -123 -87 -211t-212 -88h-127q-23 0 -37 -14t-14 -37v-98q0 -23 -14.5 -37t-36.5 -14h-199q-20 0 -35.5 14t-15.5 37z" />
<glyph unicode="@" horiz-adv-x="1779" d="M168 303l4 1077q0 123 88 211t211 88h330q20 0 20 -20v-260q0 -20 -20 -21h-307q-20 0 -21 -20q0 -86 -2 -566.5t-2 -488.5h332q20 0 20 -20v-260q0 -20 -20 -21h-334q-125 0 -212 88t-87 213zM551 684v152q0 20 20 20h230q20 0 20 -20v-37v-412q-115 10 -192.5 96 t-77.5 201zM551 1026v8v33q0 100 70.5 170t169.5 70h10q20 0 20 -21v-260q0 -20 -20 -20h-230q-20 0 -20 20zM971 23v260q0 20 20 20h297q16 0 21.5 18.5t19.5 18.5h260q20 0 21 -29v-10q0 -123 -87 -211t-212 -88h-320q-20 1 -20 21zM971 406v260q0 20 20 20h303 q20 0 21 21v651q0 20 -21 20h-303q-20 0 -20 21v260q0 20 20 20h326q123 0 211 -88t88 -211v-696q0 -123 -88 -211t-211 -88h-326q-20 1 -20 21zM971 793v104v410h14q115 0 177.5 -68t62.5 -172v-274q0 -20 -21 -21h-213q-20 1 -20 21z" />
<glyph unicode="A" horiz-adv-x="1320" d="M106 49v471q0 20 14.5 35.5t37.5 15.5l567 -2q20 0 35.5 -14t15.5 -37v-196q0 -20 -15.5 -35t-35.5 -15h-266q-20 0 -35.5 -15t-15.5 -36v-172q0 -20 -15.5 -34.5t-36.5 -14.5h-198q-20 0 -36 14.5t-16 34.5zM184 752q0 10 2 16l322 860q8 20 28.5 34.5t41.5 14.5h180 q59 0 59 -37q0 -29 -12 -59l-283 -774q-10 -45 -24.5 -66.5t-59.5 -21.5h-219q-35 0 -35 33zM756 979q0 29 6 47l125 338q8 20 18 20t17 -20l276 -739q12 -29 18.5 -48.5t7.5 -29.5t1 -45v-453q0 -20 -15.5 -34.5t-35.5 -14.5h-195q-20 0 -35.5 14.5t-15.5 34.5v438l-19 50 l-147 393q-6 20 -6 49z" />
<glyph unicode="B" horiz-adv-x="1366" d="M76 49v201q0 20 15 35.5t36 15.5h72q20 0 34.5 14.5t14.5 34.5v973q0 20 -14.5 34.5t-34.5 14.5h-70q-20 0 -35.5 15.5t-15.5 35.5v205q0 20 15.5 35.5t35.5 15.5h375q20 0 35.5 -15t15.5 -36l4 -1579q0 -20 -14.5 -34.5t-34.5 -14.5h-383q-20 0 -35.5 14.5t-15.5 34.5z M686 49v201q0 20 14.5 35.5t34.5 15.5h180q20 0 35 14.5t15 34.5v285q0 29 -16.5 41t-43 10t-59.5 -2h-111q-20 0 -34.5 15.5t-14.5 35.5v201q0 20 14.5 34.5t34.5 14.5h21l75 2q20 -2 38 -2q28 0 53 4q41 6 43 45v289q0 20 -14.5 34.5t-35.5 14.5h-55h-110q-20 0 -35 15.5 t-15 35.5v201q0 20 14.5 34.5t35.5 14.5h65h170q119 0 208 -85t89 -206q0 -6 2 -95t2 -124q0 -205 -92 -315q-2 -12 -2 -35q80 -104 80 -301q0 -31 -3 -102.5t-3 -112.5q0 -123 -87 -210t-212 -87h-232q-20 0 -34.5 14.5t-14.5 34.5z" />
<glyph unicode="C" horiz-adv-x="1153" d="M49 305v1075q0 125 87 212t212 87h103q20 0 35.5 -14t15.5 -35v-200q0 -20 -15.5 -36t-35.5 -16h-50q-20 0 -35.5 -14t-15.5 -35v-973q0 -20 15.5 -34.5t35.5 -14.5h50q20 0 35.5 -14t15.5 -37v-201q0 -20 -15.5 -34.5t-35.5 -14.5h-103q-125 0 -212 88t-87 211zM653 53 v201q0 20 15.5 34.5t36.5 14.5h45q20 0 34.5 15.5t14.5 35.5v78q0 23 14 37t37 14h201q20 0 34.5 -15t14.5 -36v-59v-72q0 -123 -88 -211t-211 -88h-96q-20 0 -36 15.5t-16 35.5zM653 1430v200q0 20 15.5 34.5t36.5 14.5h43h59q121 0 207 -86t90 -207v-8v-121 q0 -20 -15.5 -35.5t-35.5 -15.5h-199q-23 0 -37 15.5t-14 35.5v72q0 20 -15.5 34.5t-35.5 14.5h-47q-20 0 -36 16t-16 36z" />
<glyph unicode="D" horiz-adv-x="1447" d="M74 51v199q0 20 15 34.5t36 14.5h53q23 0 37 14.5t14 36.5v975q0 20 -15 34.5t-36 14.5h-53q-23 0 -37 15.5t-14 35.5l2 201q0 20 15 34.5t36 14.5l354 -2q23 0 37 -15.5t14 -35.5l-2 -199v-102v-1270q0 -23 -15 -37t-36 -14h-354q-23 0 -37 14t-14 37zM684 49v201 q0 20 14.5 35.5t36.5 15.5l90 2q250 8 250 191v684q0 80 -56 136t-134 56h-150q-23 0 -37 15.5t-14 35.5v199q0 23 14.5 37t36.5 14h150q203 0 347 -144.5t144 -348.5v-678q0 -203 -144.5 -352.5t-346.5 -149.5h-150q-23 0 -37 15.5t-14 35.5z" />
<glyph unicode="E" horiz-adv-x="1337" d="M92 49v201q0 20 14.5 35.5t34.5 15.5h82q20 0 35.5 14.5t15.5 34.5v975q0 20 -15 35.5t-36 15.5h-76q-20 0 -35.5 14.5t-15.5 34.5v201q0 20 15.5 35.5t35.5 15.5h357q20 0 35.5 -15t15.5 -36v-1577q0 -20 -15.5 -34.5t-35.5 -14.5h-363q-20 0 -34.5 14.5t-14.5 34.5z M707 49v201q0 20 15 35.5t36 15.5h428q20 0 35.5 -15.5t15.5 -35.5v-201q0 -20 -15.5 -34.5t-35.5 -14.5h-428q-20 0 -35.5 14.5t-15.5 34.5zM707 752v200q0 20 15 34.5t36 14.5h354q20 0 35.5 -14t15.5 -35v-200q0 -20 -15 -35t-36 -15h-354q-20 0 -35.5 15t-15.5 35z M707 1425v201q0 20 15 35.5t36 15.5h428q20 0 35.5 -15t15.5 -36v-201q0 -20 -15.5 -34.5t-35.5 -14.5h-428q-20 0 -35.5 14.5t-15.5 34.5z" />
<glyph unicode="F" horiz-adv-x="1296" d="M70 1425v201q0 20 15 35.5t36 15.5h358q20 0 35.5 -15t15.5 -36v-1577q0 -20 -15 -34.5t-36 -14.5h-178q-20 0 -35.5 14.5t-15.5 34.5v1276q0 20 -15.5 35.5t-35.5 15.5h-78q-20 0 -35.5 14.5t-15.5 34.5zM680 752v200q0 20 15.5 34.5t35.5 14.5h354q20 0 36 -14t16 -35 v-200q0 -20 -15.5 -35t-36.5 -15h-354q-20 0 -35.5 15t-15.5 35zM680 1425v201q0 20 15.5 35.5t35.5 15.5h428q20 0 35.5 -15t15.5 -36v-201q0 -20 -15 -34.5t-36 -14.5h-428q-20 0 -35.5 14.5t-15.5 34.5z" />
<glyph unicode="G" horiz-adv-x="1208" d="M63 299l3 1077q0 125 88 212t213 87h108q20 0 34.5 -14t14.5 -35v-201q0 -20 -14 -35.5t-35 -15.5h-57q-20 0 -35.5 -14t-15.5 -35l-2 -975q0 -20 14 -35.5t35 -15.5h61q20 0 34.5 -14.5t14.5 -34.5v-201q0 -20 -14 -35.5t-35 -15.5h-37h-78q-123 0 -210 88t-87 213z M596 748v196q0 20 15.5 35.5t35.5 15.5h422q20 0 34.5 -15t14.5 -36v-196q0 -20 -14 -36t-35 -16h-422q-20 0 -35.5 16t-15.5 36zM674 49v201q0 20 15.5 34.5t35.5 14.5h43q20 0 34.5 15.5t14.5 35.5v172q0 20 15.5 34.5t35.5 14.5h201q20 0 34.5 -14t14.5 -35v-100v-125 q0 -123 -88 -211t-211 -88h-94q-20 0 -35.5 15.5t-15.5 35.5zM674 1425v201q0 20 15.5 34.5t35.5 14.5h39h61q121 0 207 -86t90 -207q2 -2 2 -8l-4 -121q0 -20 -15 -35.5t-36 -15.5h-197q-20 0 -34.5 15.5t-14.5 35.5v72q0 20 -15 34.5t-36 14.5h-47q-20 0 -35.5 15.5 t-15.5 35.5z" />
<glyph unicode="H" horiz-adv-x="1359" d="M78 1425v201q0 18 12 35.5t21 17.5h295q33 0 51 -15t18 -38v-1579q0 -20 -15.5 -34.5t-35.5 -14.5h-197q-20 0 -35.5 14.5t-15.5 34.5v1278q0 20 -15.5 35.5t-35.5 15.5h4q-20 0 -35.5 15.5t-15.5 33.5zM627 741v201q0 20 15 34.5t36 14.5h205q20 0 35.5 15.5t15.5 35.5 v584q0 23 14.5 38t34.5 15h199q20 0 34.5 -15t14.5 -38v-1577q0 -20 -14.5 -35.5t-34.5 -15.5h-199q-20 0 -34.5 15.5t-14.5 35.5v592q0 20 -15.5 34.5t-35.5 14.5h-205q-20 0 -35.5 15.5t-15.5 35.5z" />
<glyph unicode="I" horiz-adv-x="919" d="M131 49v201q0 20 15.5 35.5t35.5 15.5h74q20 0 35.5 14.5t15.5 34.5v979q0 20 -15.5 34.5t-35.5 14.5h-74q-20 0 -35.5 15.5t-15.5 36.5v200q0 20 15.5 34.5t35.5 14.5h561q20 0 35 -14t15 -35v-200q0 -20 -14.5 -36t-35.5 -16h-84q-20 0 -35.5 -14t-15.5 -35v-979 q0 -20 15.5 -34.5t35.5 -14.5h84q20 0 35 -15.5t15 -35.5v-201q0 -20 -14.5 -34.5t-35.5 -14.5h-561q-20 0 -35.5 14.5t-15.5 34.5z" />
<glyph unicode="J" horiz-adv-x="1310" d="M82 299l2 246q0 20 15.5 35.5t35.5 15.5h199q23 0 37 -15.5t14 -35.5l2 -193q0 -20 15.5 -35.5t35.5 -15.5h45q20 0 36 -14.5t16 -34.5v-201q0 -23 -15.5 -37t-36.5 -14h-20h-78q-123 0 -214 88t-89 211zM481 1427v197q0 23 15.5 37t35.5 14h560q23 0 37 -14t14 -37v-225 v-1100q0 -121 -88 -210t-211 -89h-109q-23 0 -37 14.5t-14 36.5v201q0 20 15.5 34.5t35.5 14.5h56q20 0 35.5 15.5t15.5 35.5v975q0 20 -15.5 34.5t-35.5 14.5h-259q-20 0 -35.5 14t-15.5 37z" />
<glyph unicode="K" horiz-adv-x="1427" d="M55 1442v194q0 20 15.5 35t35.5 15h343q20 0 35.5 -14.5t15.5 -35.5v-1583q0 -18 -15.5 -32.5t-35.5 -14.5h-197q-20 0 -35.5 14.5t-15.5 32.5v1288q0 20 -16.5 36t-39.5 16h-34q-23 0 -39.5 14.5t-16.5 34.5zM653 766v182q0 20 14.5 34.5t37.5 14.5h296q45 0 67 -44 t30 -91l276 -811q2 -6 2 -14q0 -35 -37 -35h-215q-23 0 -42 14.5t-25 34.5l-209 617q-6 20 -26.5 34.5t-41.5 14.5h-75q-20 0 -36 14.5t-16 34.5zM756 1180q0 12 2 18l180 438q8 20 28.5 35t41.5 15h223q35 0 35 -31q0 -6 -4 -19l-179 -438q-18 -49 -69 -49h-223 q-35 0 -35 31z" />
<glyph unicode="L" horiz-adv-x="1208" d="M59 1425v201q0 18 12.5 35.5t20.5 17.5h295q33 0 51.5 -15t18.5 -38v-1579q0 -20 -15.5 -34.5t-35.5 -14.5h-197q-20 0 -35.5 14.5t-15.5 34.5v1278q0 20 -15.5 35.5t-36.5 15.5h5q-20 0 -36 15.5t-16 33.5zM608 53v197q0 20 15.5 35.5t35.5 15.5h447q20 0 35.5 -15.5 t15.5 -35.5v-197q0 -20 -15.5 -35.5t-35.5 -15.5h-447q-20 0 -35.5 15.5t-15.5 35.5z" />
<glyph unicode="M" horiz-adv-x="1732" d="M4 1434v188q0 20 15.5 36.5t35.5 16.5h377q51 0 74 -47l532 -1038q10 -16 10.5 -45t-10.5 -45l-123 -246q-10 -18 -22 -18q-10 0 -25 18l-372 735q-8 20 -15 21q-8 0 -8 -23v-942q0 -18 -15.5 -32.5t-35.5 -14.5h-199q-20 0 -35.5 14.5t-15.5 32.5v1288q0 18 -15.5 34.5 t-35.5 16.5h-66q-23 0 -37 15t-14 35zM991 1040q0 31 8 47l273 541q25 47 74 47h215q20 0 35.5 -16.5t15.5 -36.5v-1577q0 -18 -15.5 -32.5t-35.5 -14.5h-199q-20 0 -35.5 14.5t-15.5 32.5v942q0 39 -4 39v2q-2 2 -7 -6q-6 -10 -20 -39l-113 -223q-8 -20 -22 -21 q-12 0 -25 21l-121 235q-8 18 -8 45z" />
<glyph unicode="N" horiz-adv-x="1570" d="M86 1438v190q0 20 14.5 35.5t34.5 15.5h385q51 0 74 -47l340 -671q23 -41 22 -97v-565q0 -23 -8 -23q-6 0 -14 19l-356 698q-8 18 -15 19q-8 0 -8 -23v-940q0 -20 -15.5 -34.5t-35.5 -14.5h-199q-20 0 -35.5 14.5t-15.5 34.5v1288q0 20 -15.5 34.5t-35.5 14.5h-68 q-20 0 -34.5 16t-14.5 36zM1106 49v1577q0 20 15.5 35.5t35.5 15.5h197q20 0 35.5 -15t15.5 -36v-1577q0 -20 -15.5 -34.5t-35.5 -14.5h-197q-20 0 -35.5 14.5t-15.5 34.5z" />
<glyph unicode="O" horiz-adv-x="1228" d="M76 299l4 1083q4 123 90 208t209 85v-1675h-4q-125 0 -212 87t-87 212zM528 49v201q0 20 15.5 35.5t36.5 15.5h200q20 0 35.5 14.5t15.5 34.5l5 973q0 20 -15.5 35.5t-36.5 15.5h-204q-20 0 -36 14.5t-16 34.5v201q0 20 15.5 35.5t36.5 15.5h88h170q145 0 222 -99 t77 -251q-4 0 -4 -997q0 -139 -82 -233.5t-217 -94.5h-254q-20 0 -36 14.5t-16 34.5z" />
<glyph unicode="P" horiz-adv-x="1413" d="M92 1423v201q0 23 15.5 37t35.5 14l371 -2q23 0 37 -15.5t14 -35.5v-1571q0 -23 -14 -37t-37 -14h-199q-20 0 -35.5 14.5t-15.5 36.5v1270q0 23 -15.5 37t-35.5 14h-70q-20 0 -35.5 14t-15.5 37zM717 741v195q0 20 14 35.5t35 15.5h180q20 0 35.5 14.5t15.5 36.5v283 q0 23 -15 37t-36 14h-180q-20 0 -34.5 15.5t-14.5 35.5v199q0 20 14 35.5t35 15.5h94h139q123 0 209 -85t90 -206v-8v-411q0 -104 -67.5 -180t-169.5 -93h-295q-20 0 -34.5 15.5t-14.5 35.5z" />
<glyph unicode="Q" horiz-adv-x="1474" d="M111 297v1079q0 121 88 210t211 89h133q23 0 37 -14t14 -37v-199q0 -20 -14.5 -35.5t-36.5 -15.5h-82q-20 0 -34.5 -15.5t-14.5 -35.5v-975q0 -20 14 -34.5t35 -14.5h82q23 0 37 -14.5t14 -36.5v-199q0 -20 -14.5 -35.5t-36.5 -15.5h-133q-123 0 -211 88t-88 211zM745 49 v199q0 23 14.5 37t37.5 14h473q20 0 35.5 -14.5t15.5 -36.5v-199q0 -20 -15.5 -35.5t-35.5 -15.5h-473q-23 0 -37.5 15.5t-14.5 35.5zM745 1425v199q0 23 14.5 37t37.5 14h37h86q125 0 212 -88t87 -213v-872q0 -20 -15.5 -35.5t-36.5 -15.5h-200q-20 0 -34.5 15t-14.5 36 v825q-2 20 -16.5 33.5t-35.5 13.5h-69q-23 0 -37.5 15.5t-14.5 35.5z" />
<glyph unicode="R" horiz-adv-x="1501" d="M115 1432v196q0 23 14 37t37 14l371 2q20 0 35.5 -15t15.5 -36v-1577q0 -20 -15.5 -35.5t-35.5 -15.5h-199q-23 0 -37 15.5t-14 35.5v1276q0 23 -14.5 37t-36.5 14h-70q-23 0 -37 14.5t-14 37.5zM739 741v203q0 23 15.5 37t36.5 14h180q20 0 34.5 14.5t14.5 34.5v285 q0 20 -14.5 35.5t-34.5 15.5h-180q-20 0 -36 14.5t-16 37.5v198q0 20 15.5 35.5t36.5 15.5h149h82q125 0 212 -88t87 -211v-413q0 -96 -70.5 -186.5t-167.5 -90.5l2 -2h-49h-121h-124q-20 0 -36 15.5t-16 35.5zM838 508q0 29 34 29h224q20 0 41.5 -14.5t29.5 -33.5l179 -440 q4 -12 4 -16q0 -31 -35 -31h-225q-51 0 -70 47l-178 440q-4 13 -4 19z" />
<glyph unicode="S" horiz-adv-x="1198" d="M76 305v78q0 23 15 37t36 14h199q23 0 37 -14t14 -37v-25q0 -23 14.5 -37t36.5 -14h49q23 0 37 -14t14 -37v-199q0 -20 -14 -35.5t-37 -15.5h-41h-59q-123 0 -212 88t-89 211zM76 1001v52v333q0 125 88 212.5t211 87.5h102q23 0 37 -15.5t14 -36.5v-198q0 -23 -14 -37.5 t-37 -14.5h-49q-49 0 -49 -51v-278q0 -51 49 -51h49q23 0 37 -14.5t14 -37.5v-198q0 -20 -14 -36t-37 -16h-102q-123 0 -211 87t-88 212zM678 57v199q0 23 15.5 37t35.5 14h51q23 0 37 14.5t14 36.5v293q0 20 -14 35.5t-37 15.5h-51q-20 0 -35.5 15.5t-15.5 36.5v198 q0 23 15.5 37.5t35.5 14.5h25h80q125 0 212 -87.5t87 -211.5v-400q0 -123 -87.5 -211t-211.5 -88h-105q-20 0 -35.5 15.5t-15.5 35.5zM678 1436v198q0 20 15.5 36t35.5 16h53h52q123 0 208.5 -85t90.5 -206v-9v-67q0 -20 -15.5 -35.5t-36.5 -15.5h-198q-23 0 -37.5 15 t-14.5 36v14q0 23 -14 37t-37 14h-51q-20 0 -35.5 14.5t-15.5 37.5z" />
<glyph unicode="T" horiz-adv-x="1026" d="M31 1432v196q0 20 14 35.5t35 15.5h856q20 0 34.5 -15t14.5 -36v-196q0 -20 -14.5 -36t-34.5 -16h-856q-20 0 -34.5 16t-14.5 36zM356 51l2 1127q0 20 14.5 35.5t35.5 15.5h198q20 0 34.5 -15.5t14.5 -35.5v-1127q0 -20 -14 -35.5t-35 -15.5h-200q-20 0 -35 14t-15 37z " />
<glyph unicode="U" horiz-adv-x="1296" d="M117 299v1329q0 23 15 37t36 14h201q20 0 34.5 -15t14.5 -36v-1276q0 -20 14 -35.5t37 -15.5h53q23 0 37 -15.5t14 -35.5v-199q0 -23 -14 -37t-37 -14h-8h-98q-123 0 -211 88t-88 211zM723 51v199q0 20 15.5 35.5t35.5 15.5h47q23 0 37 15.5t14 35.5v1276q0 23 14.5 37 t37.5 14h198q20 0 36 -14t16 -37v-274v-1055q0 -121 -88.5 -210t-211.5 -89h-100q-20 0 -35.5 14t-15.5 37z" />
<glyph unicode="V" horiz-adv-x="1290" d="M109 1212v414q0 20 15 35.5t36 15.5h198q23 0 37.5 -15t14.5 -36v-364q0 -57 16 -101l348 -1061q10 -31 10 -53q0 -45 -63 -45h-174q-20 0 -41 14.5t-27 34.5l-354 1061q-16 53 -16 100zM729 766q0 25 8 49l117 346q16 53 16 101v364q0 20 15.5 35.5t36.5 15.5h196 q20 0 35.5 -15t15.5 -36v-414q0 -47 -16 -100l-258 -774q-6 -18 -16.5 -18.5t-16.5 20.5l-125 377q-8 29 -8 49z" />
<glyph unicode="W" horiz-adv-x="1781" d="M156 1208v418q0 20 14 35.5t37 15.5h199q20 0 35.5 -15t15.5 -36v-371q0 -47 16 -100l148 -457l30 -96l183 -553q2 -4 2 -12q0 -35 -39 -35h-217q-51 0 -66 47l-145 453l-31 96l-166 510q-16 53 -16 100zM733 954q0 35 37 35h215q20 0 41 -14t27 -35l104 -319 q8 -27 12.5 -33t20.5 -56l147 -444q12 -35 13 -61v-7q-4 -18 -56 -18h-200q-51 0 -66 47l-293 891q-2 6 -2 14zM1249 872q0 16 4 37l56 240q14 63 12 100v377q0 20 15.5 35.5t35.5 15.5h199q23 0 37 -15t14 -36v-414q0 -61 -12 -100l-176 -745q-2 -20 -13 -21q-8 0 -16 19 l-148 446q-8 32 -8 61z" />
<glyph unicode="X" horiz-adv-x="1296" d="M119 49v467q0 43 24.5 74t59.5 55l67 64q14 14 37 14t37 -14l148 -138q16 -12 16 -32.5t-16 -36.5l-35 -33q-37 -33 -37 -84v-336q0 -20 -15.5 -34.5t-35.5 -14.5h-199q-20 0 -35.5 14.5t-15.5 34.5zM123 1171v457q0 20 15.5 34.5t35.5 14.5h199q20 0 35.5 -14t15.5 -35 v-325q0 -51 37 -84l141 -134q23 -20 36 -28t42 -37l145 -137l72 -70l227 -213q37 -33 37 -84v-467q0 -20 -15.5 -34.5t-35.5 -14.5h-199q-20 0 -35.5 14.5t-15.5 34.5v336q0 51 -37 84l-147 137l-74 68l-147 139l-74 68l-221 206q-37 33 -37 84zM776 1157.5q0 20.5 15 34.5 l26 25q37 33 37 86v325q0 20 15.5 34.5t35.5 14.5h199q20 0 35.5 -14t15.5 -35v-457q0 -29 -12.5 -52t-24.5 -35.5t-49 -41.5l-59 -57q-18 -14 -35 -14q-23 0 -39 16l-145 135q-15 15 -15 35.5z" />
<glyph unicode="Y" horiz-adv-x="1218" d="M100 1079v551q0 20 15.5 35.5t36.5 15.5h200q20 0 35.5 -15t15.5 -36v-432q0 -49 35 -88l348 -362q16 -16 17 -37q0 -12 -21.5 -50t-21.5 -65v-543q0 -20 -14.5 -35.5t-34.5 -15.5h-201q-23 0 -37 15.5t-14 35.5v543q0 51 -35 86l-289 309q-35 39 -35 88zM735 1040.5 q0 18.5 15 36.5l32 33q35 35 35 88v432q0 20 15.5 35.5t35.5 15.5h197q20 0 35.5 -15t15.5 -36v-551q0 -49 -35 -88l-123 -133q-12 -14 -34 -14q-20 0 -35 14l-139 146q-15 18 -15 36.5z" />
<glyph unicode="Z" horiz-adv-x="1177" d="M106 1430v198q0 23 14.5 37t37.5 14h866q20 0 34.5 -15t14.5 -36v-196q2 -27 2 -40q0 -10 -1 -12q-3 -4 -50 -4l-866 2q-23 0 -37.5 16t-14.5 36zM111 53v271q0 53 26 94l481 764q29 43 78 43h256q29 0 29 -23q0 -8 -6 -20l-717 -1137q-25 -39 -80 -43h-16 q-23 0 -37 15.5t-14 35.5zM430 25q0 8 8 20l137 215q29 43 78 43h359q20 0 35.5 -14.5t15.5 -36.5v-199q0 -20 -15.5 -35.5t-35.5 -15.5h-551q-31 0 -31 23z" />
<glyph unicode="[" horiz-adv-x="1046" d="M258 242l6 1210q2 121 89 210t210 89h137q20 0 36 -15.5t16 -35.5v-201q0 -20 -15.5 -34.5t-36.5 -14.5h-84q-20 0 -35.5 -15.5t-15.5 -35.5q0 -33 -1 -228.5t-1 -326.5q0 -129 1 -324.5t1 -228.5q0 -20 14.5 -34.5t36.5 -14.5h84q20 0 36 -15.5t16 -36.5v-200 q0 -20 -15.5 -34.5t-36.5 -14.5h-8h-61h-72q-125 0 -213 88t-88 213z" />
<glyph unicode="\" horiz-adv-x="1247" d="M23 1755q0 29 32 29h230q49 0 71 -47l861 -1891q4 -6 4 -18q0 -27 -33 -27h-232q-49 0 -71 45l-858 1891q-4 12 -4 18z" />
<glyph unicode="]" horiz-adv-x="999" d="M215 -8v201q0 20 15.5 34.5t35.5 14.5h84q20 0 35.5 15t15.5 36q0 33 1 228.5t1 326.5q0 129 -1 324.5t-1 228.5q0 20 -14 34.5t-37 14.5h-84q-20 0 -35.5 15.5t-15.5 35.5v201q0 20 15.5 34.5t35.5 14.5h8h134q125 0 214 -88t87 -213l-7 -1210q0 -121 -88 -210t-211 -89 h-137q-20 0 -35.5 15.5t-15.5 35.5z" />
<glyph unicode="^" horiz-adv-x="1056" d="M55 1243q0 12 8 21l140 190q29 39 80 39h471q51 0 80 -39l139 -190q8 -8 8 -21q0 -23 -29 -22h-200q-47 0 -80 41l-125 172q-10 16 -29 16q-20 0 -31 -16l-125 -172q-10 -16 -34.5 -28.5t-44.5 -12.5h-199q-29 -1 -29 22z" />
<glyph unicode="_" horiz-adv-x="1167" d="M41 -313q0 23 14.5 37t36.5 14h981q20 0 35.5 -14.5t15.5 -36.5v-199q0 -20 -15 -35.5t-36 -15.5h-981q-23 0 -37 15.5t-14 35.5v199z" />
<glyph unicode="`" horiz-adv-x="503" d="M68 2011q0 35 38 35h199q20 0 40 -14.5t26 -34.5l63 -191q2 -4 2 -14q0 -33 -37 -33h-198q-23 0 -42.5 13.5t-25.5 33.5l-63 191q-2 4 -2 14z" />
<glyph unicode="a" horiz-adv-x="1026" d="M63 291v127q0 125 88.5 212t213.5 87h79q23 0 37.5 -14.5t14.5 -36.5v-199q0 -20 -14.5 -35.5t-37.5 -15.5h-26q-20 0 -35.5 -15.5t-15.5 -35.5v-13q0 -20 15 -35.5t36 -15.5h26q23 0 37.5 -15.5t14.5 -35.5v-199q0 -23 -14.5 -37t-37.5 -14h-82q-123 0 -209 85t-90 206z M262 874v199q0 20 14.5 35.5t36.5 15.5h131q23 0 37.5 -15t14.5 -36v-199q0 -23 -14.5 -37t-37.5 -14h-131q-23 0 -37 14t-14 37zM647 51v301v740q0 35 31 34q88 0 165 -70.5t97 -158.5q8 -33 8 -53v-19v-774q0 -23 -15 -37t-36 -14h-199q-23 0 -37 14t-14 37z" />
<glyph unicode="b" horiz-adv-x="1214" d="M39 1346v200q0 20 15.5 35.5t35.5 15.5h297q20 0 35.5 -15t15.5 -36v-1499v-43l-2 -6q-45 0 -87 13.5t-94 53t-85 133t-33 230.5v817q0 25 -15.5 37t-33.5 14t-33.5 14.5t-15.5 35.5zM590 47v201q0 20 15.5 35.5t35.5 15.5h129q20 0 35.5 14.5t15.5 34.5v420 q0 20 -15 34.5t-36 14.5h-129q-20 0 -35.5 15.5t-15.5 35.5v201q0 20 15.5 34.5t35.5 14.5h107h94q113 0 194.5 -78.5t85.5 -191.5v-6v-547q0 -123 -87 -210t-212 -87h-182q-20 0 -35.5 14.5t-15.5 34.5z" />
<glyph unicode="c" horiz-adv-x="966" d="M72 823q0 123 88 211t211 88h12v-1120h-29q-117 0 -197.5 82t-80.5 199q-4 -1 -4 540zM535 53v199q0 20 14 35.5t35 15.5h247q20 0 35 -15.5t15 -35.5v-199q0 -20 -14.5 -35.5t-35.5 -15.5h-247q-20 0 -34.5 15.5t-14.5 35.5zM535 872v199q0 20 14 35.5t35 15.5h252 q20 0 35.5 -15t15.5 -36v-199q0 -20 -15.5 -35.5t-35.5 -15.5h-252q-20 0 -34.5 15.5t-14.5 35.5z" />
<glyph unicode="d" horiz-adv-x="1136" d="M61 303v545q0 117 82 198.5t199 81.5h205q23 0 37 -15t14 -36v-198q0 -23 -14.5 -37.5t-36.5 -14.5h-133q-20 0 -36 -14t-16 -37v-422q0 -20 15.5 -34.5t36.5 -14.5h133q23 0 37 -15.5t14 -35.5v-201q0 -20 -15.5 -34.5t-35.5 -14.5h-121h-66q-125 0 -212 87t-87 212z M659 1356v198q0 23 14.5 37.5t37.5 14.5h284q20 0 36 -14.5t16 -37.5v-1060v-5v-47q0 -111 -23 -193.5t-55.5 -127.5t-76.5 -71.5t-77 -34t-65 -7.5v1247q0 35 -45.5 49.5t-45.5 51.5z" />
<glyph unicode="e" horiz-adv-x="1161" d="M82 303v524q0 123 87 211t212 88h2l-2 -1073v-51q-125 0 -212 88t-87 213zM535 53v201q0 20 15 35.5t36 15.5h151h37l14 2v-4h265q33 0 32 -33q0 -108 -91 -187q-93 -81 -206 -81h-202q-20 0 -35.5 15.5t-15.5 35.5zM535 461v201q0 20 15 34.5t36 14.5h149q20 0 35.5 15 t15.5 36v14q0 20 -15 34.5t-36 14.5h-149q-20 0 -35.5 15.5t-15.5 36.5v200q0 20 15 34.5t36 14.5h106h96q123 0 209 -85t90 -205v-9v-116q0 -125 -87 -213t-212 -88h-202q-20 0 -35.5 15.5t-15.5 35.5z" />
<glyph unicode="f" horiz-adv-x="874" d="M47 874v201q0 35 41 49.5t41 51.5v188q0 123 88 211t211 88h317q20 0 35 -14.5t15 -34.5v-201q0 -20 -14.5 -35.5t-35.5 -15.5h-264q-20 0 -35.5 -14.5t-15.5 -34.5v-1260q0 -20 -14.5 -35.5t-34.5 -15.5h-201q-20 0 -35.5 15.5t-15.5 35.5v721q0 35 -41 49t-41 51z M582 874v201q0 20 15 34.5t36 14.5h108q20 0 36 -14t16 -35v-201q0 -20 -15.5 -35.5t-36.5 -15.5h-108q-20 0 -35.5 15.5t-15.5 35.5z" />
<glyph unicode="g" horiz-adv-x="1120" d="M49 281v544q0 123 87 211t212 88h182q23 0 37.5 -15t14.5 -36v-199q0 -23 -14.5 -37t-37.5 -14h-129q-20 0 -35.5 -14t-15.5 -37v-418q0 -23 15.5 -37t35.5 -14h129q23 0 37.5 -14.5t14.5 -36.5v-199q0 -20 -14.5 -35.5t-37.5 -15.5h-200q-115 0 -198 82t-83 197z M51 -164q0 20 15.5 35.5t35.5 15.5h199q37 0 51.5 -47t50.5 -47h127q23 0 37.5 -15.5t14.5 -35.5v-199q0 -23 -14.5 -37t-37.5 -14h-180q-117 0 -203 79t-96 193h2q-2 6 -2 19v-19v72zM735 -508v1632q125 0 212 -89t87 -218v-1026q0 -125 -88 -212t-211 -87z" />
<glyph unicode="h" horiz-adv-x="1208" d="M51 1354v198q0 20 15.5 36t35.5 16h295q20 0 36 -15.5t16 -36.5v-1501q0 -23 -15.5 -37t-36.5 -14h-198q-23 0 -37.5 14.5t-14.5 36.5v1200q0 25 -15 37t-32.5 14.5t-33 14.5t-15.5 37zM600 874v199q0 20 15.5 35.5t35.5 15.5h199q117 0 197.5 -78.5t82.5 -191.5v-8v-795 q0 -23 -14 -37t-37 -14h-198q-20 0 -36 14.5t-16 36.5v721q0 23 -15 37t-36 14h-127q-20 0 -35.5 14t-15.5 37z" />
<glyph unicode="i" horiz-adv-x="446" d="M74 47l2 1030q0 18 15 34.5t36 16.5h197q20 0 35.5 -16t15.5 -35v-1030q0 -18 -15.5 -32.5t-35.5 -14.5h-201q-20 0 -34.5 14.5t-14.5 32.5zM74 1307v114q0 20 14 36t35 16h201q20 0 35.5 -15.5t15.5 -36.5v-114q0 -20 -14.5 -35t-36.5 -15h-201q-20 0 -34.5 15t-14.5 35 z" />
<glyph unicode="j" horiz-adv-x="643" d="M-242 -158q0 23 14.5 37.5t37.5 14.5l206 -3q20 0 36 -16t16 -37v-12l-2 -330q-123 0 -215.5 88t-92.5 211v47zM125 874v199q0 20 15.5 35.5t35.5 15.5h289q23 0 37 -15t14 -36v-1278q0 -123 -88 -211t-211 -88v1276q0 37 -46 51t-46 51zM129 1309v121q0 20 15.5 34.5 t35.5 14.5h285q20 0 35.5 -14.5t15.5 -34.5v-121q0 -23 -14.5 -37.5t-36.5 -14.5h-285q-20 0 -35.5 14.5t-15.5 37.5z" />
<glyph unicode="k" horiz-adv-x="1177" d="M43 1356v198q0 23 15.5 37.5t35.5 14.5h299q20 0 34.5 -15.5t14.5 -36.5v-655v-102v-152v-100v-488q0 -20 -14 -35.5t-35 -15.5h-200q-20 0 -36 15.5t-16 35.5v1196q0 25 -15 37.5t-33.5 14.5t-34 14t-15.5 37zM594 389v563q0 51 37 88l55 56q37 37 78 37h8h320 q27 0 26 -17q0 -10 -10 -20l-346 -353q-18 -18 -19 -47q0 -23 9 -32l360 -615q6 -8 6 -18q0 -25 -31 -25h-247q-49 0 -76 43l-143 246q-27 49 -27 94z" />
<glyph unicode="l" horiz-adv-x="516" d="M45 1354v198q0 20 14.5 36t36.5 16h295q23 0 37 -15.5t14 -36.5v-1501q0 -23 -14 -37t-37 -14h-198q-20 0 -36 14.5t-16 36.5v1200q0 25 -15 37t-32.5 14.5t-33 14.5t-15.5 37z" />
<glyph unicode="m" horiz-adv-x="1689" d="M43 872v199q0 23 15.5 38t35.5 15h295q20 0 35.5 -15t15.5 -38v-1022q0 -20 -15 -34.5t-36 -14.5h-196q-20 0 -36 14.5t-16 34.5v723q0 25 -15 36t-33.5 14t-34 14t-15.5 36zM594 872v199q0 23 15.5 38t35.5 15h670q113 0 195.5 -80.5t84.5 -191.5v-803q0 -20 -15 -34.5 t-36 -14.5h-198q-20 0 -36 14.5t-16 34.5v723q0 23 -14 37t-37 14h-219v-774q0 -20 -15.5 -34.5t-35.5 -14.5h-199q-20 0 -35.5 14.5t-15.5 34.5q-2 0 -2 774h-76q-20 0 -35.5 14.5t-15.5 34.5z" />
<glyph unicode="n" horiz-adv-x="1183" d="M39 872v201q0 20 15.5 34.5t35.5 14.5h297q20 0 35.5 -14t15.5 -35v-1024q0 -20 -15 -34.5t-36 -14.5h-199q-20 0 -35.5 14.5t-15.5 34.5l2 723q0 35 -50 49t-50 51zM588 872v201q0 20 14 34.5t35 14.5h180q117 0 199 -80.5t82 -197.5v-795q0 -20 -15.5 -34.5 t-35.5 -14.5h-199q-20 0 -35.5 14.5t-15.5 34.5v723q0 20 -15.5 34.5t-36.5 14.5h-108q-20 0 -34.5 15.5t-14.5 35.5z" />
<glyph unicode="o" horiz-adv-x="1148" d="M76 301v520q0 125 87 212t212 87v-1118q-123 0 -211 87t-88 212zM526 51v201q0 20 15.5 35.5t36.5 15.5h151q20 0 35.5 14.5t15.5 34.5v418q0 20 -15 34.5t-36 14.5h-151q-20 0 -36 15.5t-16 35.5v201q0 20 15.5 34.5t36.5 14.5h135h69q123 0 210 -84t89 -207v-8v-520 q0 -123 -87 -211t-212 -88h-204q-20 0 -36 14.5t-16 34.5z" />
<glyph unicode="p" horiz-adv-x="1177" d="M25 872v199q0 23 14 37t37 14h297q20 0 35.5 -14t15.5 -37v-1372q0 -23 -15.5 -37t-35.5 -14h-199q-23 0 -37 14t-14 37v1071q0 25 -15.5 37t-34 14t-33.5 14t-15 37zM575 53v199q0 23 15.5 37t36.5 14h129q23 0 37 14.5t14 36.5v416q0 20 -14.5 35.5t-36.5 15.5h-129 q-20 0 -36 15.5t-16 35.5v199q0 23 15.5 37t36.5 14h182q125 0 212 -87t87 -212v-540q0 -117 -82 -199t-199 -82h-200q-20 0 -36 15.5t-16 35.5z" />
<glyph unicode="q" horiz-adv-x="1132" d="M59 283v538q0 125 87 212t212 87h185q20 0 35.5 -14t15.5 -35v-201q0 -20 -15.5 -35.5t-35.5 -15.5h-131q-20 0 -36 -14t-16 -35v-418q0 -20 15.5 -34.5t36.5 -14.5h131q20 0 35.5 -15.5t15.5 -35.5v-201q0 -20 -15.5 -34.5t-35.5 -14.5h-107h-96q-115 0 -198 83t-83 198 zM745 -297v1417q125 0 212 -88t87 -215v-1114q0 -20 -15 -35.5t-36 -15.5h-198q-20 0 -35 15.5t-15 35.5z" />
<glyph unicode="r" horiz-adv-x="878" d="M84 51v1028q0 20 14.5 35.5t34.5 15.5h199q20 0 34.5 -15t14.5 -36v-1028q0 -20 -14.5 -34.5t-34.5 -14.5h-199q-20 0 -34.5 14.5t-14.5 34.5zM532 723v309q0 20 14.5 40t35.5 28l94 26q96 27 153 27v-250q0 -20 -15 -37.5t-36 -21.5l-37 -8q-39 -10 -100.5 -41 t-108.5 -72z" />
<glyph unicode="s" horiz-adv-x="1142" d="M72 297h182h63q20 0 36 -14.5t16 -34.5v-248q-123 0 -210 87t-87 210zM72 705v114q0 125 87 213t210 88v-51v-666q-123 0 -210 88.5t-87 213.5zM197 299h57q6 0 6 -2zM371 299q2 0 2 -2zM522 49v201q0 20 15.5 34.5t35.5 14.5h152q20 0 35.5 15.5t15.5 35.5v4 q0 20 -15.5 34.5t-35.5 14.5h-152q-20 0 -35.5 15.5t-15.5 36.5v200q0 20 15.5 35t35.5 15h99h106q125 0 212 -87.5t87 -211.5v-109q0 -121 -88 -209t-211 -88h-205q-20 0 -35.5 14.5t-15.5 34.5zM522 868v201q0 20 15.5 35.5t35.5 15.5h113h92q123 0 211 -88t88 -213h-51 h-453q-20 0 -35.5 14.5t-15.5 34.5z" />
<glyph unicode="t" horiz-adv-x="944" d="M41 874v199q0 20 14.5 35.5t34.5 15.5h125q20 0 34.5 15.5t14.5 36.5v360q0 20 15.5 35.5t35.5 15.5h201q20 0 34.5 -15.5t14.5 -35.5l-2 -1532q-121 0 -210 88t-89 211v469q0 20 -14 35.5t-35 15.5h-125q-20 0 -34.5 15.5t-14.5 35.5zM715 53v201q0 20 15 35.5t36 15.5 h33q20 0 35.5 -15.5t15.5 -35.5v-201q0 -20 -15.5 -34.5t-35.5 -14.5h-33q-20 0 -35.5 14.5t-15.5 34.5zM715 874v199q0 20 15 35.5t36 15.5h47q20 0 35.5 -15t15.5 -36v-199q0 -20 -15 -35.5t-36 -15.5h-47q-20 0 -35.5 15.5t-15.5 35.5z" />
<glyph unicode="u" horiz-adv-x="1167" d="M82 301v778q0 23 14.5 37t36.5 14h199q20 0 35.5 -14t15.5 -37l-2 -1079q-123 0 -211 88t-88 213zM532 51v199q0 20 14.5 35.5t35.5 15.5h153q23 0 37 15.5t14 35.5v727q0 23 14.5 37t37.5 14h198q20 0 35.5 -14t15.5 -37l3 -780q0 -123 -88.5 -211t-210.5 -88h-209 q-20 0 -35 15.5t-15 35.5z" />
<glyph unicode="v" horiz-adv-x="1173" d="M76 641v432q0 20 15 35.5t36 15.5h197q20 0 35.5 -15t15.5 -36v-350q0 -53 24 -96l330 -584q6 -12 6 -20q0 -23 -30 -23h-236q-53 0 -78 43l-291 502q-24 43 -24 96zM680 463q0 23 10 43l70 121q27 45 26 96v350q0 20 14.5 35.5t37.5 15.5h198q20 0 35.5 -15t15.5 -36 v-432q0 -33 -4 -51.5t-14 -34.5l-29 -45l-178 -307q-10 -18 -24 -19q-14 0 -25 19l-123 215q-10 20 -10 45z" />
<glyph unicode="w" horiz-adv-x="1296" d="M70 651v422q0 20 15 35.5t36 15.5h201q20 0 34.5 -15t14.5 -36v-364q0 -53 18 -101l213 -561q4 -12 4 -14q0 -33 -37 -33h-221q-49 0 -67 47l-185 483q-14 39 -20 58.5t-6 62.5zM500 748q0 20 8 45l125 278q10 18 20 19q12 0 19 -19l28 -61q4 -6 39 -92l351 -852 q18 -47 18 -58q-4 -8 -53 -8h-187q-18 0 -40.5 13.5t-30.5 31.5l-129 295l-22 49q-15 35 -19 45l-119 266q-8 30 -8 48zM932 891v182q0 20 15.5 35.5t35.5 15.5h201q20 0 35.5 -15t15.5 -36v-407q0 -55 -14 -117l-47 -219q-2 -20 -15 -21q-8 0 -16 19l-191 465 q-20 49 -20 98z" />
<glyph unicode="x" horiz-adv-x="1136" d="M76 51v236q0 49 39 84l73 63q14 14 39 15q23 0 37 -15l156 -133q16 -12 16 -33q0 -16 -16 -32l-4 -5q-39 -31 -39 -81v-99q0 -20 -14.5 -35.5t-34.5 -15.5h-201q-20 0 -35.5 15.5t-15.5 35.5zM82 836v239q0 20 14.5 35.5t34.5 15.5h201q20 0 35.5 -15t15.5 -36v-100 q0 -51 37 -84l610 -520q39 -35 39 -84v-236q0 -20 -15.5 -35.5t-35.5 -15.5h-201q-20 0 -34.5 15.5t-14.5 35.5v99q0 51 -39 81l-610 521q-37 33 -37 84zM711 858q0 12 25.5 50t25.5 67v100q0 20 15.5 35.5t35.5 15.5h201q20 0 34.5 -15t14.5 -36v-239q0 -51 -37 -84 l-70 -58q-18 -14 -36.5 -14t-40.5 14l-154 131q-14 15 -14 33z" />
<glyph unicode="y" horiz-adv-x="1124" d="M76 -158q0 23 15 37.5t36 14.5h199q25 0 37 -15.5t14 -33t14 -33t37 -15.5h125q20 0 35.5 -15t15.5 -36v-199q0 -23 -15.5 -37t-35.5 -14h-176q-125 0 -213 88t-88 211v47zM76 293v784q0 20 15 35.5t36 15.5h199q23 0 37 -15t14 -36v-774h176q20 0 35.5 -14.5t15.5 -36.5 v-199q0 -20 -15.5 -35.5t-35.5 -15.5h-176q-121 0 -210 85t-91 206zM756 -504l2 1581q0 20 14 35.5t37 15.5h199q20 0 35.5 -15t15.5 -36v-1282q0 -125 -88 -212t-211 -87h-4z" />
<glyph unicode="z" horiz-adv-x="1001" d="M90 367v2h2zM90 870v201q0 20 15.5 34.5t35.5 14.5h441q27 0 26 -14q0 -8 -12 -21l-229 -229q-33 -37 -86 -37h-140q-23 0 -37 14t-14 37zM92 53v262q0 53 35 88l684 682q35 35 66 35q23 0 34 1h3q11 0 15 -9q5 -10 5 -41v-235q0 -49 -37 -86l-713 -711q-37 -37 -63 -37 q-29 0 -29 51zM387 18q0 6 10 21l230 229q35 35 88 35h164q20 0 35.5 -14.5t15.5 -34.5v-201q0 -20 -14.5 -35.5t-36.5 -15.5h-465q-27 0 -27 16z" />
<glyph unicode="{" horiz-adv-x="903" d="M109 846q0 20 14 39l106 133q31 39 31 88l2 530q0 123 88 210t211 87h137q20 0 36 -14t16 -35v-201q0 -20 -15.5 -34.5t-36.5 -14.5h-86q-20 0 -35.5 -15t-15.5 -36v-633l-22 -28q-43 -49 -43 -70t16 -43l16 -21l33 -40v-27q0 -6 -1 -34t-1 -42v-536q0 -20 15.5 -35 t35.5 -15h80q20 0 35.5 -15t15.5 -36v-201q0 -20 -15 -34.5t-36 -14.5h-133q-123 0 -211 86t-88 211v537q0 49 -33 90l-102 123q-14 23 -14 41z" />
<glyph unicode="|" horiz-adv-x="374" d="M106 -145v1880q0 23 14.5 37t37.5 14h69q23 0 37.5 -14.5t14.5 -36.5v-1880q0 -23 -14.5 -37.5t-37.5 -14.5h-69q-23 0 -37.5 14.5t-14.5 37.5z" />
<glyph unicode="}" horiz-adv-x="915" d="M111 1683v201q0 20 15 34.5t36 14.5h137q123 0 211 -87t88 -210q2 0 2 -530q0 -49 31 -88l106 -133q14 -18 15 -39q0 -18 -15 -41l-102 -123q-33 -41 -33 -90v-537q0 -125 -88 -211t-211 -86h-133q-20 0 -35.5 14.5t-15.5 34.5v201q0 20 15.5 35.5t35.5 15.5h80 q20 0 35.5 14.5t15.5 35.5v536q0 14 -1 42t-1 34v27l33 40l16 21q16 23 16.5 43t-42.5 70l-23 28v633q0 20 -15.5 35.5t-35.5 15.5h-86q-20 0 -35.5 14.5t-15.5 34.5z" />
<glyph unicode="~" />
<glyph unicode="&#xa0;" />
<glyph unicode="&#xa1;" horiz-adv-x="696" d="M193 49q0 -20 14 -35.5t37 -15.5h198q20 0 36 15.5t16 35.5v883q0 16 -7 102l-12 103q-4 23 -20.5 37t-36.5 14h-148q-49 0 -57 -51l-14 -103q-6 -43 -6 -102v-883zM193 1456v168q0 23 14 37t37 14h198q20 0 36 -14t16 -37v-168q0 -23 -15.5 -37t-36.5 -14h-198 q-23 0 -37 14t-14 37z" />
<glyph unicode="&#xa2;" />
<glyph unicode="&#xa3;" horiz-adv-x="1210" d="M92 51v199q0 37 37 51t37 51v142q0 23 15.5 37t35.5 14h201q20 0 34.5 -15.5t14.5 -35.5v-142q0 -20 14.5 -35.5t36.5 -15.5h481q20 0 36 -15.5t16 -35.5v-199q0 -23 -15.5 -37t-36.5 -14h-221h-635q-20 0 -35.5 14t-15.5 37zM92 748v192q0 23 15.5 37t35.5 14h144h438 q20 0 35.5 -14t15.5 -37v-192q0 -23 -15.5 -37.5t-35.5 -14.5h-164h-418q-20 0 -35.5 14.5t-15.5 37.5zM166 1194v43v141q0 125 87 212t212 87h321q125 0 212 -87t87 -212v-65q0 -23 -14 -37t-37 -14h-198q-20 0 -36 14t-16 37v12q0 23 -15 37t-36 14h-215q-23 0 -37 -14 t-14 -37v-45q8 -27 2 -82t-51 -55h-201q-20 0 -35.5 14t-15.5 37z" />
<glyph unicode="&#xa4;" />
<glyph unicode="&#xa5;" horiz-adv-x="1218" d="M98 1077v551q0 20 15.5 35.5t36.5 15.5h202q20 0 34.5 -15t14.5 -36v-434q0 -51 37 -88l346 -363l35 -36h49h154q20 0 35.5 -15.5t15.5 -36.5v-69q0 -20 -15.5 -35.5t-35.5 -15.5h-213q-20 0 -35.5 -15.5t-15.5 -36t15 -36t36 -15.5h213q20 0 35.5 -15.5t15.5 -35.5v-70 q0 -20 -15.5 -35.5t-35.5 -15.5h-213q-20 0 -35.5 -15.5t-15.5 -35.5v-158q0 -20 -14.5 -35.5t-34.5 -15.5h-201q-20 0 -35.5 15.5t-15.5 35.5v158q0 20 -14.5 35.5t-34.5 15.5h-218q-20 0 -34.5 15.5t-14.5 35.5v70q0 20 14.5 35.5t34.5 15.5h218q20 0 34.5 15.5t14.5 36 t-14.5 36t-34.5 15.5h-218q-20 0 -34.5 15t-14.5 36v69q0 20 14.5 36t34.5 16h156q27 0 27 16q0 6 -11 20l-229 246q-35 39 -35 88zM735 1036.5q0 22.5 15 36.5l30 33q35 35 35 88v434q0 20 15.5 35.5t35.5 15.5h199q20 0 35.5 -15t15.5 -36v-551q0 -49 -35 -88l-125 -133 q-12 -14 -32 -14q-23 0 -37 14l-137 143q-15 15 -15 37.5z" />
<glyph unicode="&#xa6;" horiz-adv-x="374" d="M111 -141v727q0 20 15 35.5t36 15.5h69q20 0 36 -15.5t16 -35.5v-727q0 -20 -15.5 -36t-36.5 -16h-69q-20 0 -35.5 16t-15.5 36zM111 1022v719q0 20 15 35.5t36 15.5h69q20 0 36 -15.5t16 -35.5v-719q0 -20 -15.5 -35.5t-36.5 -15.5h-69q-20 0 -35.5 15.5t-15.5 35.5z " />
<glyph unicode="&#xa7;" />
<glyph unicode="&#xa8;" />
<glyph unicode="&#xa9;" horiz-adv-x="841" d="M63 563l3 522v21q0 59 44 104t105 45h154q20 0 20 -20v-113q0 -18 -20 -18h-133q-20 0 -21 -21l-2 -499q0 -20 20 -21h136q20 0 20 -18v-111q0 -18 -20 -18h-64h-92q-61 0 -105.5 44t-44.5 103zM291 944q6 90 76 90h16q20 0 20 -18v-35q0 -12 -18 -18.5t-18 -20.5 l-2 -244h18q20 0 20 -18v-35q0 -18 -26 -18h-12q-29 0 -50.5 20.5t-21.5 50.5zM442 645v35q0 12 17.5 18.5t17.5 20.5v6q0 18 21 18h32q20 0 21 -18v-6v-4v-17q0 -31 -21.5 -51t-52.5 -20h-10h-4q-21 0 -21 18zM442 981v35q0 18 33 18h4q29 0 50.5 -20.5t21.5 -50.5v-23 q0 -20 -21 -20h-26q-25 0 -25 43h-16q-21 0 -21 18zM465 434v111q0 18 20 18h129q14 0 20.5 10.5t20.5 10.5h109q20 0 20 -11q0 -4 -2 -4l2 -6q0 -59 -44 -103t-105 -44h-150q-20 0 -20 18zM465 1122v113q0 20 20 20h66h86q68 0 109.5 -46t41.5 -111l3 -264 q0 -113 -31 -171.5t-121 -58.5l-2 133v19v327q0 20 -21 21h-131q-20 0 -20 18z" />
<glyph unicode="&#xaa;" />
<glyph unicode="&#xab;" horiz-adv-x="841" d="M61 653v471q0 51 41 82l191 137q10 8 20 9q20 0 21 -29v-199q0 -51 -41 -82l-170 -122q-16 -10 -16.5 -31t16.5 -31l170 -123q41 -31 41 -82v-198q0 -29 -21 -29q-10 0 -20 8l-191 137q-41 31 -41 82zM461 653v471q0 51 41 82l190 137q10 8 21 9q20 0 20 -29v-199 q0 -51 -41 -82l-170 -122q-16 -10 -16 -31t16 -31l170 -123q41 -31 41 -82v-198q0 -29 -20 -29q-10 0 -21 8l-190 137q-41 31 -41 82z" />
<glyph unicode="&#xac;" />
<glyph unicode="&#xad;" />
<glyph unicode="&#xae;" horiz-adv-x="841" d="M57 563l2 520v21q0 61 43 105t107 44h153q20 0 21 -20v-111q0 -20 -21 -20h-133q-20 0 -20 -21l-2 -497q0 -20 20 -21h135q20 0 21 -20v-109q0 -20 -21 -20h-83h-72q-63 0 -106.5 44t-43.5 105zM260 987v33q0 20 21 20h51q43 0 43 -18v-4v-31v-41v-53v-41v-33v-41v-127 q0 -20 -21 -20h-30q-20 0 -21 20v295q0 20 -20 21h-2q-21 0 -21 20zM412 819v33q0 20 20 20h29q20 0 20 21v53q0 20 -20 21h-29q-20 0 -20 20v31q0 20 20 20l27 -2v2q61 0 79.5 -21.5t18.5 -115.5q0 -96 -59 -102l-21 -2h-22h-17q-23 0 -24.5 1t-1.5 21zM440 750q0 10 15 10 h37q18 0 28 -19l37 -92q2 -2 2 -6q0 -12 -14 -12h-37q-20 0 -29 18l-37 92v4zM459 434v109q0 20 20 20h129q16 0 21.5 9.5t19.5 9.5h109q20 0 20 -11v-2q-2 -4 -2 -6h2q0 -61 -43 -105t-106 -44h-150q-20 0 -20 20zM459 1122v111q0 20 20 20h94h58q70 0 111.5 -50t41.5 -120 q6 0 7 -131v-80q0 -20 -3.5 -69t-8.5 -67.5t-16 -51.5t-27.5 -45t-42 -23.5t-60.5 -11.5l-2 131v21v325q0 20 -21 21h-131q-20 0 -20 20z" />
<glyph unicode="&#xaf;" />
<glyph unicode="&#x2c9;" />
<glyph unicode="&#xb0;" />
<glyph unicode="&#xb1;" />
<glyph unicode="&#xb2;" horiz-adv-x="614" d="M59 870v123q0 18 15 37l178 189q2 6 8 6t6 -11v-190q0 -20 19 -20h217q20 0 20 -21v-113q0 -20 -20 -20h-422q-21 0 -21 20zM59 1430v112q0 59 45.5 104.5t104.5 45.5h20h17q20 0 20 -21v-112q0 -20 -20 -21h-15q-18 0 -18 -18v-88q0 -20 -20 -21h-113q-21 1 -21 19z M340 1114v180q0 23 14 37l29 31q12 16 12 35v123q0 18 -18 18h-17q-20 0 -20 21v112q0 20 20 21h19h2h16q61 0 105.5 -44t44.5 -106v-205q0 -23 -12 -34l-181 -193q-4 -4 -8 -4q-6 0 -6 8z" />
<glyph unicode="&#xb3;" horiz-adv-x="614" d="M59 1001v111q0 20 21 21l110 -3q20 0 21 -20v-86q0 -20 20 -20h13q20 0 20 -21v-111q0 -20 -20 -20h-8h-7h-20q-61 0 -105.5 44t-44.5 105zM59 1436v108q0 63 44 106.5t106 43.5h35q20 0 20 -21v-108q0 -20 -20 -21h-13q-20 0 -20 -20v-88q0 -20 -21 -21h-110 q-21 1 -21 21zM283 1225v110q0 20 20 21h16q16 0 37 12l23 21q16 10 16 32v103q0 20 -20 20h-13q-20 0 -20 21v108q0 20 20 21h35q61 0 105.5 -43t44.5 -107v-194q0 -20 -17 -33l-28 -25q-6 -2 -6 -12q0 -6 6 -12l28 -25q18 -12 19 -31v-204v-7q0 -61 -44 -105t-106 -44h-37 q-20 0 -20 20v111q0 20 20 21h13q20 0 20 20v92q0 2 1 10.5t1 12.5q0 23 -18 32l-23 21q-20 12 -37 12h-16q-20 1 -20 21z" />
<glyph unicode="&#xb4;" horiz-adv-x="503" d="M66 1769q0 10 2 15l77 246q14 47 66 47h201q37 0 37 -33q0 -10 -3 -14l-77 -246q-6 -20 -26.5 -34.5t-41.5 -14.5h-199q-36 -1 -36 34z" />
<glyph unicode="&#xb5;" horiz-adv-x="1255" d="M-289 -104q0 20 14.5 34.5t36.5 14.5h207q20 0 35.5 -17.5t15.5 -38.5l-2 -342q-123 0 -215 88.5t-92 210.5v50zM78 881v196q0 23 15.5 38t35.5 15h76h12h199q16 0 30 -10q23 -12 23 -43v-1231q0 -121 -88 -210t-211 -89v1229q0 25 -14.5 37t-32 15t-31.5 15.5t-14 37.5z M616 51v199q0 20 14.5 35.5t35.5 15.5h153q20 0 35.5 15.5t15.5 35.5v727q0 23 15.5 37t36.5 14h198q23 0 37 -14t14 -37l3 -780q0 -123 -88.5 -211t-211.5 -88h-208q-20 0 -35 15.5t-15 35.5z" />
<glyph unicode="&#xb6;" />
<glyph unicode="&#xb7;" />
<glyph unicode="&#xb8;" horiz-adv-x="966" d="M307 -160q0 6 8 23l35 51q6 14 19 14q8 0 8 -20v-37q0 -20 -12.5 -34.5t-30.5 -14.5q-27 0 -27 18zM528 -2h142q-37 -10 -37 -49v-64l-43 -63h-62v176z" />
<glyph unicode="&#xb9;" horiz-adv-x="436" d="M57 1561v110q0 20 21 21h194q20 0 21 -21v-653q0 -20 20 -21h37q20 0 21 -20v-109q0 -20 -21 -20h-270q-20 0 -21 20v109q0 20 21 20h41q20 0 20 21v502q0 20 -20 20h-43q-21 1 -21 21z" />
<glyph unicode="&#xba;" />
<glyph unicode="&#xbb;" horiz-adv-x="841" d="M109 455v198q0 51 41 82l169 123q16 10 16.5 30.5t-16.5 31.5l-169 122q-41 31 -41 82v199q0 29 20 29q10 0 21 -9l190 -137q41 -31 41 -82v-471q0 -51 -41 -82l-190 -137q-10 -8 -21 -8q-20 0 -20 29zM508 455v198q0 51 41 82l170 123q16 10 16 30.5t-16 31.5l-170 122 q-41 31 -41 82v199q0 29 20 29q10 0 21 -9l190 -137q41 -31 41 -82v-471q0 -51 -41 -82l-190 -137q-10 -8 -21 -8q-20 0 -20 29z" />
<glyph unicode="&#xbc;" horiz-adv-x="1435" d="M139 27q0 6 4 18l731 1597q23 45 72 46h88q33 0 33 -27q0 -12 -4 -19l-733 -1597q-23 -47 -72 -47h-86q-33 0 -33 29zM750 199v34v41v80q0 18 12 39l268 432q10 16 31 17h139q12 0 12 -8l-4 -9l-297 -475l-12 -20q0 -2 21 -2h108q20 0 21 -21v-108q0 -20 -21 -21h-258 q-20 1 -20 21zM1122 18v461q0 20 21 21h110q20 0 21 -21v-461q0 -20 -21 -20h-110q-21 0 -21 20z" />
<glyph unicode="&#xbd;" horiz-adv-x="1435" d="M133 31q0 4 4 16l731 1598q23 45 72 45h88q33 0 33 -27q0 -12 -4 -18l-733 -1598q-8 -18 -30 -32.5t-42 -14.5h-86q-33 0 -33 31zM823 20v123q0 18 15 37l178 189q4 6 8 6q6 0 6 -10v-191q0 -20 19 -20h217q20 0 20 -21v-113q0 -20 -20 -20h-422q-21 0 -21 20zM823 580 v112q0 59 45 104.5t105 45.5h20h17q20 0 20 -21v-112q0 -20 -20 -21h-15q-18 0 -18 -18v-88q0 -20 -21 -21h-112q-21 1 -21 19zM1104 264v180q0 23 14 37l29 31q12 16 12 35v123q0 18 -18 18h-17q-20 0 -20 21v112q0 20 20 21h19h2h16q61 0 105.5 -44t44.5 -106v-205 q0 -23 -13 -34l-180 -193q-4 -4 -8 -4q-6 0 -6 8z" />
<glyph unicode="&#xbe;" horiz-adv-x="1435" d="M43 1001v111q0 20 20 21l111 -3q20 0 21 -20v-86q0 -20 20 -20h12q20 0 21 -21v-111q0 -20 -21 -20h-8h-6h-20q-61 0 -105.5 44t-44.5 105zM43 1436v37v71q0 63 44 106.5t106 43.5h34q20 0 21 -21v-108q0 -20 -21 -21h-12q-20 0 -20 -20v-88q0 -20 -21 -21h-111 q-20 1 -20 21zM201 29q0 4 4 16l733 1595q23 47 72 48h86q35 0 34 -29q0 -4 -4 -17l-735 -1597q-23 -47 -72 -47h-83q-35 0 -35 31zM266 1225v110q0 20 21 21h16q16 0 37 12l22 21q16 10 17 32v103q0 20 -21 20h-12q-20 0 -20 21v108q0 20 20 21h12h23q61 0 105 -43t44 -107 v-194q0 -20 -16 -33l-29 -25q-6 -2 -6 -12q0 -6 6 -12l29 -25q18 -12 18 -31v-204v-7q0 -61 -44 -105t-105 -44h-37q-20 0 -20 20v111q0 20 20 21h12q20 0 21 20v92q4 8 2 27.5t-19 27.5l-22 21q-20 12 -37 12h-16q-21 1 -21 21zM774 199v34v41v80q0 23 10 39l271 432 q12 16 30 17h138q12 0 12 -11q0 -4 -2 -6l-299 -477q-10 -14 -10 -18q0 -2 20 -2h107q20 0 20 -21v-108q0 -20 -20 -21h-256q-21 1 -21 21zM1147 18v461q0 20 20 21h111q20 0 20 -21v-461q0 -20 -20 -20h-111q-20 0 -20 20z" />
<glyph unicode="&#xbf;" horiz-adv-x="1392" d="M143 299v217v102v70q0 125 87 212t212 87h127q20 0 36 14.5t16 36.5v99q0 23 15 37t36 14h198q23 0 37.5 -14.5t14.5 -36.5v-88v-64q0 -125 -88.5 -213t-210.5 -88h-9q-10 0 -10 2h-108q-20 0 -36 -15.5t-16 -35.5v-283q0 -20 15.5 -35.5t36.5 -15.5h59q23 0 37 -15.5 t14 -35.5v-199q0 -23 -14 -37t-37 -14h-51h-62q-123 0 -211 88t-88 211zM621 1460v168q0 23 15 37t36 14h198q23 0 37.5 -14t14.5 -37v-168q0 -23 -14.5 -37t-37.5 -14h-198q-20 0 -35.5 14t-15.5 37zM756 51v199q0 20 15 35.5t36 15.5h31q23 0 37 15.5t14 35.5v15 q0 23 14.5 37t36.5 14l199 2q20 0 35.5 -15.5t15.5 -35.5v-70q0 -123 -87 -211t-212 -88h-84q-20 0 -35.5 14t-15.5 37z" />
<glyph unicode="&#xc0;" horiz-adv-x="1339" d="M106 49v471q0 20 14.5 35.5t37.5 15.5l567 -2q20 0 35.5 -14t15.5 -37v-196q0 -20 -15.5 -35t-35.5 -15h-266q-20 0 -35.5 -15t-15.5 -36v-172q0 -20 -15.5 -34.5t-36.5 -14.5h-198q-20 0 -36 14.5t-16 34.5zM184 752q0 10 2 16l322 860q8 20 28.5 34.5t41.5 14.5h180 q59 0 59 -37q0 -29 -12 -59l-283 -774q-10 -45 -24.5 -66.5t-59.5 -21.5h-219q-35 0 -35 33zM434 2011q0 35 39 35h199q20 0 39.5 -14.5t25.5 -34.5l64 -191q2 -4 2 -14q0 -33 -37 -33h-199q-23 0 -42 13.5t-25 33.5l-64 191q-2 4 -2 14zM756 979q0 29 6 47l125 338 q8 20 18 20t17 -20l276 -739q12 -29 18.5 -48.5t7.5 -29.5t1 -45v-453q0 -20 -15.5 -34.5t-35.5 -14.5h-195q-20 0 -35.5 14.5t-15.5 34.5v438l-19 50l-147 393q-6 20 -6 49z" />
<glyph unicode="&#xc1;" horiz-adv-x="1339" d="M106 49v471q0 20 14.5 35.5t37.5 15.5l567 -2q20 0 35.5 -14t15.5 -37v-196q0 -20 -15.5 -35t-35.5 -15h-266q-20 0 -35.5 -15t-15.5 -36v-172q0 -20 -15.5 -34.5t-36.5 -14.5h-198q-20 0 -36 14.5t-16 34.5zM184 752q0 10 2 16l322 860q8 20 28.5 34.5t41.5 14.5h180 q59 0 59 -37q0 -29 -12 -59l-283 -774q-10 -45 -24.5 -66.5t-59.5 -21.5h-219q-35 0 -35 33zM551 1792q0 10 2 14l63 191q6 20 26 34.5t40 14.5h199q39 0 39 -35q0 -10 -2 -14l-64 -191q-6 -20 -25.5 -33.5t-42.5 -13.5h-198q-37 0 -37 33zM756 979q0 29 6 47l125 338 q8 20 18 20t17 -20l276 -739q12 -29 18.5 -48.5t7.5 -29.5t1 -45v-453q0 -20 -15.5 -34.5t-35.5 -14.5h-195q-20 0 -35.5 14.5t-15.5 34.5v438l-19 50l-147 393q-6 20 -6 49z" />
<glyph unicode="&#xc2;" horiz-adv-x="1339" d="M106 49v471q0 20 14.5 35.5t37.5 15.5l567 -2q20 0 35.5 -14t15.5 -37v-196q0 -20 -15.5 -35t-35.5 -15h-266q-20 0 -35.5 -15t-15.5 -36v-172q0 -20 -15.5 -34.5t-36.5 -14.5h-198q-20 0 -36 14.5t-16 34.5zM184 752q0 10 2 16l322 860q8 20 28.5 34.5t41.5 14.5h180 q59 0 59 -37q0 -29 -12 -59l-283 -774q-10 -45 -24.5 -66.5t-59.5 -21.5h-219q-35 0 -35 33zM223 1786q0 10 8 20l138 191q31 41 82 41h471q51 0 82 -41l137 -191q8 -10 8 -20q0 -20 -29 -21h-198q-51 0 -82 41l-123 170q-10 16 -30.5 16.5t-31.5 -16.5l-123 -170 q-31 -41 -81 -41h-199q-29 1 -29 21zM756 979q0 29 6 47l125 338q8 20 18 20t17 -20l276 -739q12 -29 18.5 -48.5t7.5 -29.5t1 -45v-453q0 -20 -15.5 -34.5t-35.5 -14.5h-195q-20 0 -35.5 14.5t-15.5 34.5v438l-19 50l-147 393q-6 20 -6 49z" />
<glyph unicode="&#xc3;" horiz-adv-x="1339" d="M100 1958v22q0 20 14.5 36t35.5 16h462q23 0 37.5 -14.5t14.5 -37.5v-38q0 -20 14 -36t37 -16h465q20 0 35.5 -15t15.5 -36v-24q0 -20 -15.5 -35t-35.5 -15h-592q-20 0 -35.5 14.5t-15.5 35.5v40q0 20 -14.5 36t-37.5 16h-335q-20 0 -35 15.5t-15 35.5zM106 49v471 q0 20 14.5 35.5t37.5 15.5l567 -2q20 0 35.5 -14t15.5 -37v-196q0 -20 -15.5 -35t-35.5 -15h-266q-20 0 -35.5 -15t-15.5 -36v-172q0 -20 -15.5 -34.5t-36.5 -14.5h-198q-20 0 -36 14.5t-16 34.5zM184 752q0 10 2 16l322 860q8 20 28.5 34.5t41.5 14.5h180q59 0 59 -37 q0 -29 -12 -59l-283 -774q-10 -45 -24.5 -66.5t-59.5 -21.5h-219q-35 0 -35 33zM756 979q0 29 6 47l125 338q8 20 18 20t17 -20l276 -739q12 -29 18.5 -48.5t7.5 -29.5t1 -45v-453q0 -20 -15.5 -34.5t-35.5 -14.5h-195q-20 0 -35.5 14.5t-15.5 34.5v438l-19 50l-147 393 q-6 20 -6 49z" />
<glyph unicode="&#xc4;" horiz-adv-x="1339" d="M106 49v471q0 20 14.5 35.5t37.5 15.5l567 -2q20 0 35.5 -14t15.5 -37v-196q0 -20 -15.5 -35t-35.5 -15h-266q-20 0 -35.5 -15t-15.5 -36v-172q0 -20 -15.5 -34.5t-36.5 -14.5h-198q-20 0 -36 14.5t-16 34.5zM184 752q0 10 2 16l322 860q8 20 28.5 34.5t41.5 14.5h180 q59 0 59 -37q0 -29 -12 -59l-283 -774q-10 -45 -24.5 -66.5t-59.5 -21.5h-219q-35 0 -35 33zM340 1896.5q0 45.5 27.5 81t70.5 47.5v-258q-43 10 -70.5 47t-27.5 82.5zM514 1769v254q41 -12 67.5 -46.5t26.5 -80t-26.5 -80.5t-67.5 -47zM725 1896.5q0 45.5 28.5 81 t71.5 47.5v-258q-43 10 -71.5 47t-28.5 82.5zM756 979q0 29 6 47l125 338q8 20 18 20t17 -20l276 -739q12 -29 18.5 -48.5t7.5 -29.5t1 -45v-453q0 -20 -15.5 -34.5t-35.5 -14.5h-195q-20 0 -35.5 14.5t-15.5 34.5v438l-19 50l-147 393q-6 20 -6 49zM899 1769v254 q41 -12 67.5 -46.5t26.5 -80t-26.5 -80.5t-67.5 -47z" />
<glyph unicode="&#xc5;" horiz-adv-x="1339" d="M106 49v471q0 20 14.5 35.5t37.5 15.5l567 -2q20 0 35.5 -14t15.5 -37v-196q0 -20 -15.5 -35t-35.5 -15h-266q-20 0 -35.5 -15t-15.5 -36v-172q0 -20 -15.5 -34.5t-36.5 -14.5h-198q-20 0 -36 14.5t-16 34.5zM184 752q0 10 2 16l322 860q8 20 28.5 34.5t41.5 14.5h180 q59 0 59 -37q0 -29 -12 -59l-283 -774q-10 -45 -24.5 -66.5t-59.5 -21.5h-219q-35 0 -35 33zM418 2007q0 92 55 164t141 94v-514q-86 23 -141 93.5t-55 162.5zM756 979q0 29 6 47l125 338q8 20 18 20t17 -20l276 -739q12 -29 18.5 -48.5t7.5 -29.5t1 -45v-453 q0 -20 -15.5 -34.5t-35.5 -14.5h-195q-20 0 -35.5 14.5t-15.5 34.5v438l-19 50l-147 393q-6 20 -6 49zM766 1753v510q82 -27 134 -97.5t52 -158.5t-52 -157.5t-134 -96.5z" />
<glyph unicode="&#xc6;" horiz-adv-x="2013" d="M106 49v471q0 20 14.5 35.5t37.5 15.5l567 -2q20 0 35.5 -14t15.5 -37v-196q0 -20 -15.5 -35t-35.5 -15h-266q-20 0 -35.5 -15t-15.5 -36v-172q0 -20 -15.5 -34.5t-36.5 -14.5h-198q-20 0 -36 14.5t-16 34.5zM184 752q0 10 2 16l322 860q8 20 28.5 34.5t41.5 14.5h180 q59 0 59 -37q0 -29 -12 -59l-283 -774q-10 -45 -24.5 -66.5t-59.5 -21.5h-219q-35 0 -35 33zM756 979q0 29 6 47l125 338q8 20 18 20t17 -20l276 -739q12 -29 18.5 -48.5t7.5 -29.5t1 -45v-453q0 -20 -15.5 -34.5t-35.5 -14.5h-195q-20 0 -35.5 14.5t-15.5 34.5v438l-19 50 l-147 393q-6 20 -6 49zM1227 973q0 31 35 31h516q20 0 35.5 -14.5t15.5 -37.5v-196q0 -23 -15.5 -37t-35.5 -14h-410q-20 0 -40.5 14t-27.5 33l-71 204q-2 7 -2 17zM1284 1432v196q0 23 15.5 37t35.5 14h428q23 0 37.5 -14t14.5 -37v-196q0 -23 -14.5 -37.5t-37.5 -14.5 h-428q-20 0 -35.5 14.5t-15.5 37.5zM1372 53v199q0 23 14.5 37t36.5 14h428q20 0 36 -14.5t16 -36.5v-199q0 -20 -15.5 -35.5t-36.5 -15.5h-428q-23 0 -37 15.5t-14 35.5z" />
<glyph unicode="&#xc7;" horiz-adv-x="1153" d="M45 301q2 0 2 51q-2 0 1 461t3 528q0 143 80 240.5t217 97.5h107q20 0 34.5 -15t14.5 -36v-198q0 -20 -14.5 -36t-34.5 -16h-54q-20 0 -35.5 -15t-15.5 -36v-412l-2 -561q0 -20 14.5 -35.5t34.5 -15.5h58q20 0 34.5 -15.5t14.5 -35.5v-199q0 -20 -14.5 -35.5t-34.5 -15.5 h-31h-78q-125 0 -213 88t-88 211zM434 -158q0 6 8 23l35 53q8 14 19 14q8 0 8 -22v-35q0 -23 -12.5 -37t-30.5 -14q-27 0 -27 18zM654 224.5q-3 29.5 9.5 54t43.5 24.5h45q20 0 35.5 15.5t15.5 35.5v78q0 20 14 35.5t35 15.5h201q20 0 35.5 -15t15.5 -36v-67v-64 q0 -119 -86 -209t-207 -90q-51 0 -51 -51v-62l-23 -32l-20 -33h-62v344q2 27 -1 56.5zM655 1430v198q0 20 15.5 35.5t36.5 15.5h100q125 0 212 -88t87 -213v-123q0 -20 -14.5 -35.5t-34.5 -15.5l-201 2q-20 0 -35.5 15.5t-15.5 35.5v70q0 20 -14.5 35.5t-34.5 15.5h-49 q-20 0 -36 16t-16 36z" />
<glyph unicode="&#xc8;" horiz-adv-x="1337" d="M92 49v201q0 20 14.5 35.5t34.5 15.5h82q20 0 35.5 14.5t15.5 34.5v975q0 20 -15 35.5t-36 15.5h-76q-20 0 -35.5 14.5t-15.5 34.5v201q0 20 15.5 35.5t35.5 15.5h357q20 0 35.5 -15t15.5 -36v-1577q0 -20 -15.5 -34.5t-35.5 -14.5h-363q-20 0 -34.5 14.5t-14.5 34.5z M434 2011q0 35 39 35h199q20 0 39.5 -14.5t25.5 -34.5l64 -191q2 -4 2 -14q0 -33 -37 -33h-199q-23 0 -42 13.5t-25 33.5l-64 191q-2 4 -2 14zM707 49v201q0 20 15 35.5t36 15.5h428q20 0 35.5 -15.5t15.5 -35.5v-201q0 -20 -15.5 -34.5t-35.5 -14.5h-428q-20 0 -35.5 14.5 t-15.5 34.5zM707 752v200q0 20 15 34.5t36 14.5h354q20 0 35.5 -14t15.5 -35v-200q0 -20 -15 -35t-36 -15h-354q-20 0 -35.5 15t-15.5 35zM707 1425v201q0 20 15 35.5t36 15.5h428q20 0 35.5 -15t15.5 -36v-201q0 -20 -15.5 -34.5t-35.5 -14.5h-428q-20 0 -35.5 14.5 t-15.5 34.5z" />
<glyph unicode="&#xc9;" horiz-adv-x="1337" d="M92 49v201q0 20 14.5 35.5t34.5 15.5h82q20 0 35.5 14.5t15.5 34.5v975q0 20 -15 35.5t-36 15.5h-76q-20 0 -35.5 14.5t-15.5 34.5v201q0 20 15.5 35.5t35.5 15.5h357q20 0 35.5 -15t15.5 -36v-1577q0 -20 -15.5 -34.5t-35.5 -14.5h-363q-20 0 -34.5 14.5t-14.5 34.5z M510 1792q0 10 2 14l63 191q6 20 26 34.5t40 14.5h199q39 0 39 -35q0 -10 -2 -14l-64 -191q-6 -20 -25.5 -33.5t-42.5 -13.5h-198q-37 0 -37 33zM707 49v201q0 20 15 35.5t36 15.5h428q20 0 35.5 -15.5t15.5 -35.5v-201q0 -20 -15.5 -34.5t-35.5 -14.5h-428 q-20 0 -35.5 14.5t-15.5 34.5zM707 752v200q0 20 15 34.5t36 14.5h354q20 0 35.5 -14t15.5 -35v-200q0 -20 -15 -35t-36 -15h-354q-20 0 -35.5 15t-15.5 35zM707 1425v201q0 20 15 35.5t36 15.5h428q20 0 35.5 -15t15.5 -36v-201q0 -20 -15.5 -34.5t-35.5 -14.5h-428 q-20 0 -35.5 14.5t-15.5 34.5z" />
<glyph unicode="&#xca;" horiz-adv-x="1337" d="M92 49v201q0 20 14.5 35.5t34.5 15.5h82q20 0 35.5 14.5t15.5 34.5v975q0 20 -15 35.5t-36 15.5h-76q-20 0 -35.5 14.5t-15.5 34.5v201q0 20 15.5 35.5t35.5 15.5h357q20 0 35.5 -15t15.5 -36v-1577q0 -20 -15.5 -34.5t-35.5 -14.5h-363q-20 0 -34.5 14.5t-14.5 34.5z M164 1786q0 10 8 20l137 191q31 41 82 41h471q51 0 82 -41l137 -191q8 -10 9 -20q0 -20 -29 -21h-199q-51 0 -82 41l-123 170q-10 16 -30.5 16.5t-30.5 -16.5l-123 -170q-31 -41 -82 -41h-198q-29 1 -29 21zM707 49v201q0 20 15 35.5t36 15.5h428q20 0 35.5 -15.5 t15.5 -35.5v-201q0 -20 -15.5 -34.5t-35.5 -14.5h-428q-20 0 -35.5 14.5t-15.5 34.5zM707 752v200q0 20 15 34.5t36 14.5h354q20 0 35.5 -14t15.5 -35v-200q0 -20 -15 -35t-36 -15h-354q-20 0 -35.5 15t-15.5 35zM707 1425v201q0 20 15 35.5t36 15.5h428q20 0 35.5 -15 t15.5 -36v-201q0 -20 -15.5 -34.5t-35.5 -14.5h-428q-20 0 -35.5 14.5t-15.5 34.5z" />
<glyph unicode="&#xcb;" horiz-adv-x="1337" d="M92 49v201q0 20 14.5 35.5t34.5 15.5h82q20 0 35.5 14.5t15.5 34.5v975q0 20 -15 35.5t-36 15.5h-76q-20 0 -35.5 14.5t-15.5 34.5v201q0 20 15.5 35.5t35.5 15.5h357q20 0 35.5 -15t15.5 -36v-1577q0 -20 -15.5 -34.5t-35.5 -14.5h-363q-20 0 -34.5 14.5t-14.5 34.5z M340 1896.5q0 45.5 27.5 81t70.5 47.5v-258q-43 10 -70.5 47t-27.5 82.5zM514 1769v254q41 -12 67.5 -46.5t26.5 -80t-26.5 -80.5t-67.5 -47zM707 49v201q0 20 15 35.5t36 15.5h428q20 0 35.5 -15.5t15.5 -35.5v-201q0 -20 -15.5 -34.5t-35.5 -14.5h-428q-20 0 -35.5 14.5 t-15.5 34.5zM707 752v200q0 20 15 34.5t36 14.5h354q20 0 35.5 -14t15.5 -35v-200q0 -20 -15 -35t-36 -15h-354q-20 0 -35.5 15t-15.5 35zM707 1425v201q0 20 15 35.5t36 15.5h428q20 0 35.5 -15t15.5 -36v-201q0 -20 -15.5 -34.5t-35.5 -14.5h-428q-20 0 -35.5 14.5 t-15.5 34.5zM725 1896.5q0 45.5 28.5 81t71.5 47.5v-258q-43 10 -71.5 47t-28.5 82.5zM899 1769v254q41 -12 67.5 -46.5t26.5 -80t-26.5 -80.5t-67.5 -47z" />
<glyph unicode="&#xcc;" horiz-adv-x="919" d="M131 49v201q0 20 15.5 35.5t35.5 15.5h74q20 0 35.5 14.5t15.5 34.5v979q0 20 -15.5 34.5t-35.5 14.5h-74q-20 0 -35.5 15.5t-15.5 36.5v200q0 20 15.5 34.5t35.5 14.5h561q20 0 35 -14t15 -35v-200q0 -20 -14.5 -36t-35.5 -16h-84q-20 0 -35.5 -14t-15.5 -35v-979 q0 -20 15.5 -34.5t35.5 -14.5h84q20 0 35 -15.5t15 -35.5v-201q0 -20 -14.5 -34.5t-35.5 -14.5h-561q-20 0 -35.5 14.5t-15.5 34.5zM236 2011q0 35 38 35h199q20 0 39.5 -14.5t26.5 -34.5l63 -191q2 -4 2 -14q0 -33 -37 -33h-198q-23 0 -42.5 13.5t-25.5 33.5l-63 191 q-2 4 -2 14z" />
<glyph unicode="&#xcd;" horiz-adv-x="919" d="M131 49v201q0 20 15.5 35.5t35.5 15.5h74q20 0 35.5 14.5t15.5 34.5v979q0 20 -15.5 34.5t-35.5 14.5h-74q-20 0 -35.5 15.5t-15.5 36.5v200q0 20 15.5 34.5t35.5 14.5h561q20 0 35 -14t15 -35v-200q0 -20 -14.5 -36t-35.5 -16h-84q-20 0 -35.5 -14t-15.5 -35v-979 q0 -20 15.5 -34.5t35.5 -14.5h84q20 0 35 -15.5t15 -35.5v-201q0 -20 -14.5 -34.5t-35.5 -14.5h-561q-20 0 -35.5 14.5t-15.5 34.5zM334 1792q0 10 2 14l63 191q6 20 25.5 34.5t40.5 14.5h199q39 0 38 -35q0 -10 -2 -14l-63 -191q-6 -20 -25.5 -33.5t-42.5 -13.5h-198 q-37 0 -37 33z" />
<glyph unicode="&#xce;" horiz-adv-x="919" d="M0 1786q0 10 8 20l137 191q31 41 82 41h471q51 0 82 -41l138 -191q8 -10 8 -20q0 -20 -29 -21h-199q-51 0 -82 41l-122 170q-10 16 -31 16.5t-31 -16.5l-123 -170q-31 -41 -82 -41h-198q-29 1 -29 21zM131 49v201q0 20 15.5 35.5t35.5 15.5h74q20 0 35.5 14.5t15.5 34.5 v979q0 20 -15.5 34.5t-35.5 14.5h-74q-20 0 -35.5 15.5t-15.5 36.5v200q0 20 15.5 34.5t35.5 14.5h561q20 0 35 -14t15 -35v-200q0 -20 -14.5 -36t-35.5 -16h-84q-20 0 -35.5 -14t-15.5 -35v-979q0 -20 15.5 -34.5t35.5 -14.5h84q20 0 35 -15.5t15 -35.5v-201 q0 -20 -14.5 -34.5t-35.5 -14.5h-561q-20 0 -35.5 14.5t-15.5 34.5z" />
<glyph unicode="&#xcf;" horiz-adv-x="919" d="M131 49v201q0 20 15.5 35.5t35.5 15.5h74q20 0 35.5 14.5t15.5 34.5v979q0 20 -15.5 34.5t-35.5 14.5h-74q-20 0 -35.5 15.5t-15.5 36.5v200q0 20 15.5 34.5t35.5 14.5h561q20 0 35 -14t15 -35v-200q0 -20 -14.5 -36t-35.5 -16h-84q-20 0 -35.5 -14t-15.5 -35v-979 q0 -20 15.5 -34.5t35.5 -14.5h84q20 0 35 -15.5t15 -35.5v-201q0 -20 -14.5 -34.5t-35.5 -14.5h-561q-20 0 -35.5 14.5t-15.5 34.5zM141 1896.5q0 45.5 28 81t71 47.5v-258q-43 10 -71 47t-28 82.5zM315 1769v254q41 -12 68 -46.5t27 -80t-27 -80.5t-68 -47zM526 1896.5 q0 45.5 29 81t72 47.5v-258q-43 10 -72 47t-29 82.5zM700 1769v254q41 -12 68 -46.5t27 -80t-27 -80.5t-68 -47z" />
<glyph unicode="&#xd0;" horiz-adv-x="1447" d="M-102 739v197q0 20 15 35.5t36 15.5h231q20 0 34.5 15.5t14.5 35.5v287q0 20 -14 35.5t-35 15.5h-55q-20 0 -34.5 14.5t-16.5 36.5v197q0 23 14 37t37 14h410l-3 -637q0 -20 14.5 -35.5t35.5 -15.5h223q20 0 35.5 -15.5t15.5 -35.5v-197q0 -20 -15.5 -35.5t-35.5 -15.5 h-223q-20 0 -35 -15.5t-15 -35.5v-586q0 -20 -15 -34.5t-36 -14.5h-356q-20 0 -34.5 14.5t-14.5 34.5v199q0 20 14 35.5t35 15.5h55q20 0 34.5 15.5t14.5 35.5v285q0 20 -14 35.5t-35 15.5h-231q-20 0 -35.5 15.5t-15.5 35.5zM686 53v199q0 20 14.5 35.5t34.5 15.5h152 q80 0 137 57.5t57 176.5v602q0 119 -57 176t-137 57h-152q-20 0 -34.5 15.5t-14.5 35.5v199q0 20 14.5 35.5t34.5 15.5h152q203 0 347 -144.5t144 -348.5v-684q0 -205 -144 -349.5t-347 -144.5h-152q-20 0 -34.5 15.5t-14.5 35.5z" />
<glyph unicode="&#xd1;" horiz-adv-x="1638" d="M86 1438v190q0 20 14.5 35.5t34.5 15.5h385q51 0 74 -47l340 -671q23 -41 22 -97v-565q0 -23 -8 -23q-6 0 -14 19l-356 698q-8 18 -15 19q-8 0 -8 -23v-940q0 -20 -15.5 -34.5t-35.5 -14.5h-199q-20 0 -35.5 14.5t-15.5 34.5v1288q0 20 -15.5 34.5t-35.5 14.5h-68 q-20 0 -34.5 16t-14.5 36zM223 1958v22q0 20 14.5 36t34.5 16h463q23 0 37 -14.5t14 -37.5v-38q0 -20 14.5 -36t37.5 -16h465q20 0 35.5 -15t15.5 -36v-24q0 -20 -15.5 -35t-35.5 -15h-592q-20 0 -36 14.5t-16 35.5v40q0 20 -14 36t-37 16h-336q-20 0 -34.5 15.5t-14.5 35.5 zM1106 49v1577q0 20 15.5 35.5t35.5 15.5h197q20 0 35.5 -15t15.5 -36v-1577q0 -20 -15.5 -34.5t-35.5 -14.5h-197q-20 0 -35.5 14.5t-15.5 34.5z" />
<glyph unicode="&#xd2;" horiz-adv-x="1228" d="M76 299l4 1083q4 123 90 208t209 85v-1675h-4q-125 0 -212 87t-87 212zM432 2011q0 35 39 35h199q20 0 39.5 -14.5t25.5 -34.5l64 -191q2 -4 2 -14q0 -33 -37 -33h-199q-23 0 -42 13.5t-25 33.5l-64 191q-2 4 -2 14zM528 49v201q0 20 15.5 35.5t36.5 15.5h200 q20 0 35.5 14.5t15.5 34.5l5 973q0 20 -15.5 35.5t-36.5 15.5h-204q-20 0 -36 14.5t-16 34.5v201q0 20 15.5 35.5t36.5 15.5h88h170q145 0 222 -99t77 -251q-4 0 -4 -997q0 -139 -82 -233.5t-217 -94.5h-254q-20 0 -36 14.5t-16 34.5z" />
<glyph unicode="&#xd3;" horiz-adv-x="1228" d="M76 299l4 1083q4 123 90 208t209 85v-1675h-4q-125 0 -212 87t-87 212zM465 1792q0 10 2 14l63 191q6 20 25.5 34.5t40.5 14.5h199q39 0 39 -35q0 -10 -3 -14l-63 -191q-6 -20 -25.5 -33.5t-42.5 -13.5h-198q-37 0 -37 33zM528 49v201q0 20 15.5 35.5t36.5 15.5h200 q20 0 35.5 14.5t15.5 34.5l5 973q0 20 -15.5 35.5t-36.5 15.5h-204q-20 0 -36 14.5t-16 34.5v201q0 20 15.5 35.5t36.5 15.5h88h170q145 0 222 -99t77 -251q-4 0 -4 -997q0 -139 -82 -233.5t-217 -94.5h-254q-20 0 -36 14.5t-16 34.5z" />
<glyph unicode="&#xd4;" horiz-adv-x="1228" d="M76 299l4 1083q4 123 90 208t209 85v-1675h-4q-125 0 -212 87t-87 212zM152 1786q0 10 8 20l137 191q31 41 82 41h471q51 0 82 -41l137 -191q8 -10 8 -20q0 -20 -28 -21h-199q-51 0 -82 41l-123 170q-10 16 -30.5 16.5t-30.5 -16.5l-123 -170q-31 -41 -82 -41h-199 q-28 1 -28 21zM528 49v201q0 20 15.5 35.5t36.5 15.5h200q20 0 35.5 14.5t15.5 34.5l5 973q0 20 -15.5 35.5t-36.5 15.5h-204q-20 0 -36 14.5t-16 34.5v201q0 20 15.5 35.5t36.5 15.5h88h170q145 0 222 -99t77 -251q-4 0 -4 -997q0 -139 -82 -233.5t-217 -94.5h-254 q-20 0 -36 14.5t-16 34.5z" />
<glyph unicode="&#xd5;" horiz-adv-x="1228" d="M76 299l4 1083q4 123 90 208t209 85v-1675h-4q-125 0 -212 87t-87 212zM100 1958v22q0 20 14.5 36t35.5 16h462q23 0 37.5 -14.5t14.5 -37.5v-38q0 -20 14 -36t37 -16h375q20 0 35.5 -15t15.5 -36v-24q0 -20 -15.5 -35t-35.5 -15h-502q-20 0 -35.5 14.5t-15.5 35.5v40 q0 20 -14.5 36t-37.5 16h-335q-20 0 -35 15.5t-15 35.5zM528 49v201q0 20 15.5 35.5t36.5 15.5h200q20 0 35.5 14.5t15.5 34.5l5 973q0 20 -15.5 35.5t-36.5 15.5h-204q-20 0 -36 14.5t-16 34.5v201q0 20 15.5 35.5t36.5 15.5h88h170q145 0 222 -99t77 -251q-4 0 -4 -997 q0 -139 -82 -233.5t-217 -94.5h-254q-20 0 -36 14.5t-16 34.5z" />
<glyph unicode="&#xd6;" horiz-adv-x="1228" d="M76 299l4 1083q4 123 90 208t209 85v-1675h-4q-125 0 -212 87t-87 212zM297 1896.5q0 45.5 27.5 81t70.5 47.5v-258q-43 10 -70.5 47t-27.5 82.5zM471 1769v254q41 -12 67.5 -46.5t26.5 -80t-26.5 -80.5t-67.5 -47zM528 49v201q0 20 15.5 35.5t36.5 15.5h200 q20 0 35.5 14.5t15.5 34.5l5 973q0 20 -15.5 35.5t-36.5 15.5h-204q-20 0 -36 14.5t-16 34.5v201q0 20 15.5 35.5t36.5 15.5h88h170q145 0 222 -99t77 -251q-4 0 -4 -997q0 -139 -82 -233.5t-217 -94.5h-254q-20 0 -36 14.5t-16 34.5zM682 1896.5q0 45.5 28.5 81t71.5 47.5 v-258q-43 10 -71.5 47t-28.5 82.5zM856 1769v254q41 -12 67.5 -46.5t26.5 -80t-26.5 -80.5t-67.5 -47z" />
<glyph unicode="&#xd7;" horiz-adv-x="1044" d="M102 1014q0 23 15 37l143 141q14 14 35 14q23 0 37 -14l153 -154q14 -14 35 -14q23 0 37 14l162 160q14 14 35 14q23 0 37 -14l141 -141q14 -14 14 -37q0 -20 -14 -35l-160 -162q-14 -14 -14 -37q0 -20 14 -34l158 -158q14 -14 14 -37q0 -20 -14 -35l-142 -143 q-14 -14 -36 -14q-20 0 -35 14l-160 160q-14 14 -37 14q-20 0 -35 -14l-153 -154q-14 -14 -37 -14q-20 0 -35 14l-141 141q-14 14 -15 35q0 23 15 37l153 154q14 14 15 34q0 23 -15 37l-155 156q-15 15 -15 35z" />
<glyph unicode="&#xd8;" horiz-adv-x="1351" d="M152 303v1077q0 125 87 212t212 87l2 -1679v-51h-52h-206l-21 10l21 47l18 41q8 14 8 37q0 10 -4 31q-65 82 -65 188zM598 223v623q0 45 20 98l179 389q4 12 4 17q0 29 -35 28h-115q-20 0 -35.5 15.5t-15.5 36.5v200q0 20 15.5 34.5t35.5 14.5h207q74 0 94 -4l6 13 q27 45 76 45h228q43 0 43 -19q-4 -4 -35 -72l-652 -1423q-6 -18 -12 -18q-8 -1 -8 22zM670 31q0 4 4 16l98 209q23 45 72 45h8q20 0 35.5 15.5t15.5 35.5v144q0 49 21 98l264 569q6 16 14 17q6 0 6 -23l-4 -858q0 -123 -88 -211t-211 -88h-200q-35 0 -35 31z" />
<glyph unicode="&#xd9;" horiz-adv-x="1296" d="M117 299v1329q0 23 15 37t36 14h201q20 0 34.5 -15t14.5 -36v-1276q0 -20 14 -35.5t37 -15.5h53q23 0 37 -15.5t14 -35.5v-199q0 -23 -14 -37t-37 -14h-8h-98q-123 0 -211 88t-88 211zM432 2011q0 35 39 35h199q20 0 39.5 -14.5t25.5 -34.5l64 -191q2 -4 2 -14 q0 -33 -37 -33h-199q-23 0 -42 13.5t-25 33.5l-64 191q-2 4 -2 14zM723 51v199q0 20 15.5 35.5t35.5 15.5h47q23 0 37 15.5t14 35.5v1276q0 23 14.5 37t37.5 14h198q20 0 36 -14t16 -37v-274v-1055q0 -121 -88.5 -210t-211.5 -89h-100q-20 0 -35.5 14t-15.5 37z" />
<glyph unicode="&#xda;" horiz-adv-x="1296" d="M117 299v1329q0 23 15 37t36 14h201q20 0 34.5 -15t14.5 -36v-1276q0 -20 14 -35.5t37 -15.5h53q23 0 37 -15.5t14 -35.5v-199q0 -23 -14 -37t-37 -14h-8h-98q-123 0 -211 88t-88 211zM510 1792q0 10 2 14l63 191q6 20 26 34.5t40 14.5h199q39 0 39 -35q0 -10 -2 -14 l-64 -191q-6 -20 -25.5 -33.5t-42.5 -13.5h-198q-37 0 -37 33zM723 51v199q0 20 15.5 35.5t35.5 15.5h47q23 0 37 15.5t14 35.5v1276q0 23 14.5 37t37.5 14h198q20 0 36 -14t16 -37v-274v-1055q0 -121 -88.5 -210t-211.5 -89h-100q-20 0 -35.5 14t-15.5 37z" />
<glyph unicode="&#xdb;" horiz-adv-x="1296" d="M117 299v1329q0 23 15 37t36 14h201q20 0 34.5 -15t14.5 -36v-1276q0 -20 14 -35.5t37 -15.5h53q23 0 37 -15.5t14 -35.5v-199q0 -23 -14 -37t-37 -14h-8h-98q-123 0 -211 88t-88 211zM166 1786q0 10 8 20l137 191q31 41 82 41h471q51 0 82 -41l137 -191q8 -10 9 -20 q0 -20 -29 -21h-199q-51 0 -82 41l-123 170q-10 16 -30.5 16.5t-30.5 -16.5l-123 -170q-31 -41 -82 -41h-198q-29 1 -29 21zM723 51v199q0 20 15.5 35.5t35.5 15.5h47q23 0 37 15.5t14 35.5v1276q0 23 14.5 37t37.5 14h198q20 0 36 -14t16 -37v-274v-1055q0 -121 -88.5 -210 t-211.5 -89h-100q-20 0 -35.5 14t-15.5 37z" />
<glyph unicode="&#xdc;" horiz-adv-x="1296" d="M117 299v1329q0 23 15 37t36 14h201q20 0 34.5 -15t14.5 -36v-1276q0 -20 14 -35.5t37 -15.5h53q23 0 37 -15.5t14 -35.5v-199q0 -23 -14 -37t-37 -14h-8h-98q-123 0 -211 88t-88 211zM340 1896.5q0 45.5 27.5 81t70.5 47.5v-258q-43 10 -70.5 47t-27.5 82.5zM514 1769 v254q41 -12 67.5 -46.5t26.5 -80t-26.5 -80.5t-67.5 -47zM723 51v199q0 20 15.5 35.5t35.5 15.5h47q23 0 37 15.5t14 35.5v1276q0 23 14.5 37t37.5 14h198q20 0 36 -14t16 -37v-274v-1055q0 -121 -88.5 -210t-211.5 -89h-100q-20 0 -35.5 14t-15.5 37zM725 1896.5 q0 45.5 28.5 81t71.5 47.5v-258q-43 10 -71.5 47t-28.5 82.5zM899 1769v254q41 -12 67.5 -46.5t26.5 -80t-26.5 -80.5t-67.5 -47z" />
<glyph unicode="&#xdd;" horiz-adv-x="1218" d="M96 1077v551q0 23 15.5 37t35.5 14h201q20 0 35.5 -14t15.5 -37v-432q0 -49 35 -88l348 -363q16 -16 17 -36q0 -12 -21.5 -50t-21.5 -67v-541q0 -20 -14.5 -35.5t-34.5 -15.5h-201q-23 0 -37 14.5t-14 36.5v541q0 53 -35 88l-289 309q-35 39 -35 88zM465 1794q0 10 2 14 l61 189q6 20 26.5 34.5t41.5 14.5h199q39 0 39 -33q0 -4 -5 -16l-61 -189q-6 -20 -26.5 -34.5t-41.5 -14.5h-198q-37 0 -37 35zM731 1038.5q0 18.5 14 36.5l33 33q35 35 35 88v432q0 23 15.5 37t35.5 14h197q20 0 35.5 -14t15.5 -37v-551q0 -49 -35 -88l-123 -133 q-12 -14 -34 -14q-20 0 -35 14l-140 145q-14 19 -14 37.5z" />
<glyph unicode="&#xde;" horiz-adv-x="1075" d="M106 49v1575q0 20 15.5 34.5t36.5 14.5h196q20 0 36 -14t16 -35v-1575q0 -20 -14.5 -35.5t-37.5 -15.5h-196q-23 0 -37.5 15.5t-14.5 35.5zM518 1038v199q0 20 15.5 35.5t35.5 15.5h109q125 0 212 -87t87 -212q2 0 2 -493q0 -125 -87 -213t-212 -88h-105q-23 0 -37 15 t-14 36v198q0 23 14.5 37.5t36.5 14.5h52q20 0 35.5 14t15.5 37q-2 0 -2 440h-107q-20 0 -35.5 15.5t-15.5 35.5z" />
<glyph unicode="&#xdf;" horiz-adv-x="1204" d="M59 872v201q0 35 41 49.5t41 51.5v206q0 123 88 211t211 88l2 -1628q0 -20 -14 -35.5t-35 -15.5h-200q-20 0 -36 15.5t-16 35.5v721q0 35 -41 49t-41 51zM561 51v201q0 20 14.5 35.5t34.5 15.5h144q20 0 35.5 14.5t15.5 36.5v21q0 23 -15.5 37t-35.5 14h-144 q-20 0 -34.5 15.5t-14.5 35.5v199q0 20 14.5 35.5t34.5 15.5h197q123 0 209 -86t90 -207v-155q0 -104 -68.5 -183.5t-169.5 -95.5h-258q-20 0 -34.5 15.5t-14.5 35.5zM561 872v201q0 20 14.5 35.5t34.5 15.5h144q20 0 35.5 15.5t15.5 36.5v151q0 20 -15.5 35.5t-35.5 15.5 h-144q-20 0 -34.5 15.5t-14.5 36.5v198q0 20 14.5 35.5t34.5 15.5h197q123 0 209 -86t90 -207v-286q0 -104 -68.5 -183t-169.5 -96h-258q-20 0 -34.5 15.5t-14.5 35.5z" />
<glyph unicode="&#xe0;" horiz-adv-x="1026" d="M63 291v127q0 125 88.5 212t213.5 87h79q23 0 37.5 -14.5t14.5 -36.5v-199q0 -20 -14.5 -35.5t-37.5 -15.5h-26q-20 0 -35.5 -15.5t-15.5 -35.5v-13q0 -20 15 -35.5t36 -15.5h26q23 0 37.5 -15.5t14.5 -35.5v-199q0 -23 -14.5 -37t-37.5 -14h-82q-123 0 -209 85t-90 206z M262 874v199q0 20 14.5 35.5t36.5 15.5h131q23 0 37.5 -15t14.5 -36v-199q0 -23 -14.5 -37t-37.5 -14h-131q-23 0 -37 14t-14 37zM385 1563q0 35 39 34h199q20 0 39.5 -14t25.5 -35l64 -190q2 -4 2 -15q0 -33 -37 -32h-199q-23 0 -42 13t-25 34l-64 190q-2 5 -2 15zM647 51 v301v740q0 35 31 34q88 0 165 -70.5t97 -158.5q8 -33 8 -53v-19v-774q0 -23 -15 -37t-36 -14h-199q-23 0 -37 14t-14 37z" />
<glyph unicode="&#xe1;" horiz-adv-x="1026" d="M63 291v127q0 125 88.5 212t213.5 87h79q23 0 37.5 -14.5t14.5 -36.5v-199q0 -20 -14.5 -35.5t-37.5 -15.5h-26q-20 0 -35.5 -15.5t-15.5 -35.5v-13q0 -20 15 -35.5t36 -15.5h26q23 0 37.5 -15.5t14.5 -35.5v-199q0 -23 -14.5 -37t-37.5 -14h-82q-123 0 -209 85t-90 206z M262 874v199q0 20 14.5 35.5t36.5 15.5h131q23 0 37.5 -15t14.5 -36v-199q0 -23 -14.5 -37t-37.5 -14h-131q-23 0 -37 14t-14 37zM426 1346q0 10 2 14l64 190q6 20 25.5 34.5t39.5 14.5h199q39 0 39 -34q0 -10 -2 -15l-64 -190q-6 -20 -25.5 -33.5t-41.5 -13.5h-199 q-37 0 -37 33zM647 51v301v740q0 35 31 34q88 0 165 -70.5t97 -158.5q8 -33 8 -53v-19v-774q0 -23 -15 -37t-36 -14h-199q-23 0 -37 14t-14 37z" />
<glyph unicode="&#xe2;" horiz-adv-x="1026" d="M55 1335q0 12 8 21l140 190q29 39 80 39h471q51 0 80 -39l139 -190q8 -8 8 -21q0 -23 -29 -22h-200q-47 0 -80 41l-125 172q-10 16 -29 16q-20 0 -31 -16l-125 -172q-10 -16 -34.5 -28.5t-44.5 -12.5h-199q-29 -1 -29 22zM63 291v127q0 125 88.5 212t213.5 87h79 q23 0 37.5 -14.5t14.5 -36.5v-199q0 -20 -14.5 -35.5t-37.5 -15.5h-26q-20 0 -35.5 -15.5t-15.5 -35.5v-13q0 -20 15 -35.5t36 -15.5h26q23 0 37.5 -15.5t14.5 -35.5v-199q0 -23 -14.5 -37t-37.5 -14h-82q-123 0 -209 85t-90 206zM262 874v199q0 20 14.5 35.5t36.5 15.5h131 q23 0 37.5 -15t14.5 -36v-199q0 -23 -14.5 -37t-37.5 -14h-131q-23 0 -37 14t-14 37zM647 51v301v740q0 35 31 34q88 0 165 -70.5t97 -158.5q8 -33 8 -53v-19v-774q0 -23 -15 -37t-36 -14h-199q-23 0 -37 14t-14 37z" />
<glyph unicode="&#xe3;" horiz-adv-x="1026" d="M63 291v127q0 125 88.5 212t213.5 87h79q23 0 37.5 -14.5t14.5 -36.5v-199q0 -20 -14.5 -35.5t-37.5 -15.5h-26q-20 0 -35.5 -15.5t-15.5 -35.5v-13q0 -20 15 -35.5t36 -15.5h26q23 0 37.5 -15.5t14.5 -35.5v-199q0 -23 -14.5 -37t-37.5 -14h-82q-123 0 -209 85t-90 206z M215 1505v23q0 20 14.5 35.5t34.5 15.5h262q23 0 37.5 -15.5t14.5 -35.5v-39q0 -23 14 -37t37 -14h270q23 0 37 -14.5t14 -37.5v-24q0 -20 -15 -34.5t-36 -14.5h-397q-20 0 -35.5 14t-15.5 35v41q0 23 -14.5 37t-37.5 14h-135q-20 0 -34.5 15.5t-14.5 35.5zM262 874v199 q0 20 14.5 35.5t36.5 15.5h131q23 0 37.5 -15t14.5 -36v-199q0 -23 -14.5 -37t-37.5 -14h-131q-23 0 -37 14t-14 37zM647 51v301v740q0 35 31 34q88 0 165 -70.5t97 -158.5q8 -33 8 -53v-19v-774q0 -23 -15 -37t-36 -14h-199q-23 0 -37 14t-14 37z" />
<glyph unicode="&#xe4;" horiz-adv-x="1026" d="M63 291v127q0 125 88.5 212t213.5 87h79q23 0 37.5 -14.5t14.5 -36.5v-199q0 -20 -14.5 -35.5t-37.5 -15.5h-26q-20 0 -35.5 -15.5t-15.5 -35.5v-13q0 -20 15 -35.5t36 -15.5h26q23 0 37.5 -15.5t14.5 -35.5v-199q0 -23 -14.5 -37t-37.5 -14h-82q-123 0 -209 85t-90 206z M221 1440q0 45 27.5 80.5t70.5 48.5v-258q-43 10 -70.5 47t-27.5 82zM262 874v199q0 20 14.5 35.5t36.5 15.5h131q23 0 37.5 -15t14.5 -36v-199q0 -23 -14.5 -37t-37.5 -14h-131q-23 0 -37 14t-14 37zM395 1313v254q41 -12 67.5 -47t26.5 -80t-26.5 -80t-67.5 -47zM606 1440 q0 45 29 80.5t72 48.5v-258q-43 10 -72 47t-29 82zM647 51v301v740q0 35 31 34q88 0 165 -70.5t97 -158.5q8 -33 8 -53v-19v-774q0 -23 -15 -37t-36 -14h-199q-23 0 -37 14t-14 37zM780 1313v254q41 -12 67.5 -47t26.5 -80t-26.5 -80t-67.5 -47z" />
<glyph unicode="&#xe5;" horiz-adv-x="1026" d="M63 291v127q0 125 88.5 212t213.5 87h79q23 0 37.5 -14.5t14.5 -36.5v-199q0 -20 -14.5 -35.5t-37.5 -15.5h-26q-20 0 -35.5 -15.5t-15.5 -35.5v-13q0 -20 15 -35.5t36 -15.5h26q23 0 37.5 -15.5t14.5 -35.5v-199q0 -23 -14.5 -37t-37.5 -14h-82q-123 0 -209 85t-90 206z M262 874v199q0 20 14.5 35.5t36.5 15.5h131q23 0 37.5 -15t14.5 -36v-199q0 -23 -14.5 -37t-37.5 -14h-131q-23 0 -37 14t-14 37zM438 1440q0 45 28 80.5t71 48.5v-258q-43 10 -71 47t-28 82zM612 1313v254q41 -12 68 -47t27 -80t-27 -80t-68 -47zM647 51v301v740 q0 35 31 34q88 0 165 -70.5t97 -158.5q8 -33 8 -53v-19v-774q0 -23 -15 -37t-36 -14h-199q-23 0 -37 14t-14 37z" />
<glyph unicode="&#xe6;" horiz-adv-x="1734" d="M66 293v127q0 125 88 212t213 87h79q20 0 36 -15.5t16 -35.5v-199q0 -23 -15.5 -37t-36.5 -14h-26q-23 0 -37 -14.5t-14 -36.5v-13q0 -23 14 -37t37 -14h26q20 0 36 -14.5t16 -36.5v-199q0 -20 -15.5 -35.5t-36.5 -15.5h-81q-123 0 -209 85t-90 206zM264 877v198 q0 23 15.5 37t35.5 14h131q20 0 36 -14t16 -37v-198q0 -20 -15.5 -36t-36.5 -16h-131q-20 0 -35.5 16t-15.5 36zM649 53v1041q0 35 31 34q66 0 125 -41q68 39 143 39l2 -1073q0 -6 -2 -10v-41q-27 0 -39 2q-4 -2 -10 -2h-199q-20 0 -35.5 15.5t-15.5 35.5zM1102 53v201 q0 20 15.5 34.5t35.5 14.5h467q33 0 33 -29q0 -111 -91.5 -191.5t-205.5 -80.5h-203q-23 0 -37 15.5t-14 35.5zM1102 461v201q0 20 15.5 34.5t35.5 14.5h150q20 0 35.5 15t15.5 36v14q0 20 -15.5 34.5t-35.5 14.5h-150q-23 0 -37 15.5t-14 36.5v200q0 18 15.5 33.5 t35.5 15.5h203q123 0 209 -85t90 -207v-123q0 -125 -87 -213t-212 -88h-203q-23 0 -37 14t-14 37z" />
<glyph unicode="&#xe7;" horiz-adv-x="966" d="M72 819q0 123 88 211t211 88h12v-1071v-2q-2 -20 -16.5 -33.5t-34.5 -13.5l-6 2q-106 10 -178 89t-72 190q-4 -1 -4 540zM313 -160q0 12 9 23l32 51q12 16 19 16q10 0 10 -24v-35q0 -20 -13.5 -35.5t-31.5 -15.5q-25 0 -25 20zM535 45v4v199q0 20 14 35.5t35 15.5h247 q20 0 35 -15.5t15 -35.5v-199q0 -20 -14.5 -35.5t-35.5 -15.5h-155q-39 -6 -39 -51v-62l-23 -32l-20 -33h-59v225zM535 868v199q0 20 14 35.5t35 15.5h252q20 0 35.5 -15.5t15.5 -35.5v-199q0 -20 -15.5 -35.5t-35.5 -15.5h-252q-20 0 -34.5 15.5t-14.5 35.5z" />
<glyph unicode="&#xe8;" horiz-adv-x="1161" d="M82 295v8v524q0 123 87 211t212 88h2v-559l-2 -514v-51q-123 0 -209 85t-90 208zM385 1563q0 35 39 34h199q20 0 39.5 -14t25.5 -35l64 -190q2 -4 2 -15q0 -33 -37 -32h-199q-23 0 -42 13t-25 34l-64 190q-2 5 -2 15zM535 53v201q0 20 15 35.5t36 15.5h151h37l14 2v-2v-2 h224h41q33 0 32 -29v-2v-8q-14 -111 -98 -186.5t-199 -75.5h-73h-129q-20 0 -35.5 15.5t-15.5 35.5zM535 461v201q0 20 15 34.5t36 14.5h78h71q20 0 35.5 15t15.5 36v14q0 20 -15 34.5t-36 14.5h-43h-106q-20 0 -35.5 15.5t-15.5 36.5v200q0 20 15 34.5t36 14.5h106h45h51 q123 0 209 -85t90 -205v-9v-116q0 -125 -87 -213t-212 -88h-124h-78q-20 0 -35.5 15.5t-15.5 35.5z" />
<glyph unicode="&#xe9;" horiz-adv-x="1161" d="M82 295v8v524q0 123 87 211t212 88h2v-559l-2 -514v-51q-123 0 -209 85t-90 208zM432 1346q0 10 2 14l64 190q6 20 25.5 34.5t39.5 14.5h199q39 0 39 -34q0 -10 -2 -15l-64 -190q-6 -20 -25.5 -33.5t-41.5 -13.5h-199q-37 0 -37 33zM535 53v201q0 20 15 35.5t36 15.5h151 h37l14 2v-2v-2h224h41q33 0 32 -29v-2v-8q-14 -111 -98 -186.5t-199 -75.5h-73h-129q-20 0 -35.5 15.5t-15.5 35.5zM535 461v201q0 20 15 34.5t36 14.5h78h71q20 0 35.5 15t15.5 36v14q0 20 -15 34.5t-36 14.5h-43h-106q-20 0 -35.5 15.5t-15.5 36.5v200q0 20 15 34.5 t36 14.5h106h45h51q123 0 209 -85t90 -205v-9v-116q0 -125 -87 -213t-212 -88h-124h-78q-20 0 -35.5 15.5t-15.5 35.5z" />
<glyph unicode="&#xea;" horiz-adv-x="1161" d="M82 295v8v524q0 123 87 211t212 88h2v-559l-2 -514v-51q-123 0 -209 85t-90 208zM125 1335q0 12 8 21l139 190q29 39 80 39h471q51 0 80 -39l139 -190q8 -8 9 -21q0 -23 -29 -22h-201q-47 0 -80 41l-125 172q-10 16 -28 16q-20 0 -31 -16l-125 -172q-10 -16 -34.5 -28.5 t-45.5 -12.5h-198q-29 -1 -29 22zM535 53v201q0 20 15 35.5t36 15.5h151h37l14 2v-2v-2h224h41q33 0 32 -29v-2v-8q-14 -111 -98 -186.5t-199 -75.5h-73h-129q-20 0 -35.5 15.5t-15.5 35.5zM535 461v201q0 20 15 34.5t36 14.5h78h71q20 0 35.5 15t15.5 36v14q0 20 -15 34.5 t-36 14.5h-43h-106q-20 0 -35.5 15.5t-15.5 36.5v200q0 20 15 34.5t36 14.5h106h45h51q123 0 209 -85t90 -205v-9v-116q0 -125 -87 -213t-212 -88h-124h-78q-20 0 -35.5 15.5t-15.5 35.5z" />
<glyph unicode="&#xeb;" horiz-adv-x="1161" d="M82 295v8v524q0 123 87 211t212 88h2v-559l-2 -514v-51q-123 0 -209 85t-90 208zM264 1440q0 45 27.5 80.5t70.5 48.5v-258q-43 10 -70.5 47t-27.5 82zM438 1313v254q41 -12 67.5 -47t26.5 -80t-26.5 -80t-67.5 -47zM535 53v201q0 20 15 35.5t36 15.5h151h37l14 2v-2v-2 h224h41q33 0 32 -29v-2v-8q-14 -111 -98 -186.5t-199 -75.5h-73h-129q-20 0 -35.5 15.5t-15.5 35.5zM535 461v201q0 20 15 34.5t36 14.5h78h71q20 0 35.5 15t15.5 36v14q0 20 -15 34.5t-36 14.5h-43h-106q-20 0 -35.5 15.5t-15.5 36.5v200q0 20 15 34.5t36 14.5h106h45h51 q123 0 209 -85t90 -205v-9v-116q0 -125 -87 -213t-212 -88h-124h-78q-20 0 -35.5 15.5t-15.5 35.5zM649 1440q0 45 29 80.5t72 48.5v-258q-43 10 -72 47t-29 82zM823 1313v254q41 -12 68 -47t27 -80t-27 -80t-68 -47z" />
<glyph unicode="&#xec;" horiz-adv-x="446" d="M6 1563q0 35 39 34h199q20 0 39.5 -14t25.5 -35l64 -190q2 -4 2 -15q0 -33 -37 -32h-199q-23 0 -42 13t-25 34l-64 190q-2 5 -2 15zM76 49l2 1028q0 20 15.5 35.5t35.5 15.5h197q20 0 35.5 -15t15.5 -36v-1028q0 -20 -15.5 -34.5t-35.5 -14.5h-201q-20 0 -34.5 14.5 t-14.5 34.5z" />
<glyph unicode="&#xed;" horiz-adv-x="446" d="M76 49l2 1028q0 20 15.5 35.5t35.5 15.5h197q20 0 35.5 -15t15.5 -36v-1028q0 -20 -15.5 -34.5t-35.5 -14.5h-201q-20 0 -34.5 14.5t-14.5 34.5zM94 1346q0 10 2 14l64 190q6 20 25.5 34.5t39.5 14.5h199q39 0 39 -34q0 -10 -2 -15l-64 -190q-6 -20 -25.5 -33.5 t-41.5 -13.5h-199q-37 0 -37 33z" />
<glyph unicode="&#xee;" horiz-adv-x="446" d="M-262 1313l199 272h573l199 -272h-301l-185 252l-184 -252h-301zM76 49l2 1028q0 20 15.5 35.5t35.5 15.5h197q20 0 35.5 -15t15.5 -36v-1028q0 -20 -15.5 -34.5t-35.5 -14.5h-201q-20 0 -34.5 14.5t-14.5 34.5z" />
<glyph unicode="&#xef;" horiz-adv-x="446" d="M-70 1440q0 45 28 80.5t71 48.5v-258q-43 10 -71 47t-28 82zM76 49l2 1028q0 20 15.5 35.5t35.5 15.5h197q20 0 35.5 -15t15.5 -36v-1028q0 -20 -15.5 -34.5t-35.5 -14.5h-201q-20 0 -34.5 14.5t-14.5 34.5zM104 1313v254q41 -12 68 -47t27 -80t-27 -80t-68 -47z M315 1440q0 45 29 80.5t72 48.5v-258q-43 10 -72 47t-29 82zM489 1313v254q41 -12 68 -47t27 -80t-27 -80t-68 -47z" />
<glyph unicode="&#xf0;" horiz-adv-x="1267" d="M143 334v371q0 119 85 206.5t204 87.5h82q23 0 37 -14t14 -37v-194q0 -20 -14 -36t-37 -16h-18q-20 0 -36 -15t-16 -36v-297q0 -23 15.5 -37t36.5 -14h18q23 0 37 -14.5t14 -36.5v-199q0 -20 -14 -35.5t-37 -15.5h-37q-158 0 -246 87t-88 245zM209 1434v196q0 23 15.5 38 t35.5 15h254q20 0 35.5 -15t15.5 -38v-289q0 -20 -13 -42.5t-30 -30.5l-157 -92q-6 -6 -19 -7q-27 0 -27 31v129q0 23 -15 38t-36 15h-8q-23 0 -37 16t-14 36zM715 754v198q0 23 15 37.5t36 14.5h31q23 0 37 14t14 37v180q0 20 13 44t30 34l207 121l18 6q33 0 33 -56v-1050 q0 -158 -88 -245t-246 -87h-37q-20 0 -35.5 15.5t-15.5 35.5v199q0 23 15.5 37t35.5 14h19q23 0 37 14.5t14 36.5v297q0 20 -15.5 35.5t-35.5 15.5h-31q-20 0 -35.5 16t-15.5 36zM715 1427v244q0 51 45 78l194 115l19 6q25 0 24 -33l2 -143q2 -35 20.5 -57.5t51.5 -51.5 l-305 -178q-10 -6 -28.5 -15.5t-20.5 -13.5q-2 0 -2 49z" />
<glyph unicode="&#xf1;" horiz-adv-x="1183" d="M39 872v201q0 20 15.5 34.5t35.5 14.5h297q20 0 35.5 -14t15.5 -35v-1024q0 -20 -15 -34.5t-36 -14.5h-199q-20 0 -35.5 14.5t-15.5 34.5l2 723q0 35 -50 49t-50 51zM215 1505v23q0 20 14.5 35.5t34.5 15.5h262q23 0 37.5 -15.5t14.5 -35.5v-39q0 -23 14 -37t37 -14h270 q23 0 37 -14.5t14 -37.5v-24q0 -20 -15 -34.5t-36 -14.5h-397q-20 0 -35.5 14t-15.5 35v41q0 23 -14.5 37t-37.5 14h-135q-20 0 -34.5 15.5t-14.5 35.5zM588 872v201q0 20 14 34.5t35 14.5h180q117 0 199 -80.5t82 -197.5v-795q0 -20 -15.5 -34.5t-35.5 -14.5h-199 q-20 0 -35.5 14.5t-15.5 34.5v723q0 20 -15.5 34.5t-36.5 14.5h-108q-20 0 -34.5 15.5t-14.5 35.5z" />
<glyph unicode="&#xf2;" horiz-adv-x="1148" d="M76 301v520q0 125 87 212t212 87v-1118q-123 0 -211 87t-88 212zM383 1563q0 35 39 34h199q20 0 39.5 -14t25.5 -35l64 -190q2 -4 2 -15q0 -33 -37 -32h-199q-23 0 -42 13t-25 34l-64 190q-2 5 -2 15zM526 51v201q0 20 15.5 35.5t36.5 15.5h151q20 0 35.5 14.5t15.5 34.5 v418q0 20 -15 34.5t-36 14.5h-151q-20 0 -36 15.5t-16 35.5v201q0 20 15.5 34.5t36.5 14.5h135h69q123 0 210 -84t89 -207v-8v-520q0 -123 -87 -211t-212 -88h-204q-20 0 -36 14.5t-16 34.5z" />
<glyph unicode="&#xf3;" horiz-adv-x="1148" d="M76 301v520q0 125 87 212t212 87v-1118q-123 0 -211 87t-88 212zM403 1346q0 10 3 14l63 190q6 20 25.5 34.5t40.5 14.5h198q39 0 39 -34q0 -10 -2 -15l-63 -190q-6 -20 -25.5 -33.5t-42.5 -13.5h-199q-37 0 -37 33zM526 51v201q0 20 15.5 35.5t36.5 15.5h151 q20 0 35.5 14.5t15.5 34.5v418q0 20 -15 34.5t-36 14.5h-151q-20 0 -36 15.5t-16 35.5v201q0 20 15.5 34.5t36.5 14.5h135h69q123 0 210 -84t89 -207v-8v-520q0 -123 -87 -211t-212 -88h-204q-20 0 -36 14.5t-16 34.5z" />
<glyph unicode="&#xf4;" horiz-adv-x="1148" d="M76 301v520q0 125 87 212t212 87v-1118q-123 0 -211 87t-88 212zM125 1335q0 12 8 21l139 190q29 39 80 39h471q51 0 80 -39l139 -190q8 -8 9 -21q0 -23 -29 -22h-201q-47 0 -80 41l-125 172q-10 16 -28 16q-20 0 -31 -16l-125 -172q-10 -16 -34.5 -28.5t-45.5 -12.5 h-198q-29 -1 -29 22zM526 51v201q0 20 15.5 35.5t36.5 15.5h151q20 0 35.5 14.5t15.5 34.5v418q0 20 -15 34.5t-36 14.5h-151q-20 0 -36 15.5t-16 35.5v201q0 20 15.5 34.5t36.5 14.5h135h69q123 0 210 -84t89 -207v-8v-520q0 -123 -87 -211t-212 -88h-204q-20 0 -36 14.5 t-16 34.5z" />
<glyph unicode="&#xf5;" horiz-adv-x="1148" d="M76 301v520q0 125 87 212t212 87v-1118q-123 0 -211 87t-88 212zM215 1505v23q0 20 14.5 35.5t34.5 15.5h262q23 0 37.5 -15.5t14.5 -35.5v-39q0 -23 14 -37t37 -14h270q23 0 37 -14.5t14 -37.5v-24q0 -20 -15 -34.5t-36 -14.5h-397q-20 0 -35.5 14t-15.5 35v41 q0 23 -14.5 37t-37.5 14h-135q-20 0 -34.5 15.5t-14.5 35.5zM526 51v201q0 20 15.5 35.5t36.5 15.5h151q20 0 35.5 14.5t15.5 34.5v418q0 20 -15 34.5t-36 14.5h-151q-20 0 -36 15.5t-16 35.5v201q0 20 15.5 34.5t36.5 14.5h135h69q123 0 210 -84t89 -207v-8v-520 q0 -123 -87 -211t-212 -88h-204q-20 0 -36 14.5t-16 34.5z" />
<glyph unicode="&#xf6;" horiz-adv-x="1148" d="M76 301v520q0 125 87 212t212 87v-1118q-123 0 -211 87t-88 212zM242 1440q0 45 27.5 80.5t70.5 48.5v-258q-43 10 -70.5 47t-27.5 82zM416 1313v254q41 -12 67.5 -47t26.5 -80t-26.5 -80t-67.5 -47zM526 51v201q0 20 15.5 35.5t36.5 15.5h151q20 0 35.5 14.5t15.5 34.5 v418q0 20 -15 34.5t-36 14.5h-151q-20 0 -36 15.5t-16 35.5v201q0 20 15.5 34.5t36.5 14.5h135h69q123 0 210 -84t89 -207v-8v-520q0 -123 -87 -211t-212 -88h-204q-20 0 -36 14.5t-16 34.5zM627 1440q0 45 28.5 80.5t71.5 48.5v-258q-43 10 -71.5 47t-28.5 82zM801 1313 v254q41 -12 67.5 -47t26.5 -80t-26.5 -80t-67.5 -47z" />
<glyph unicode="&#xf7;" />
<glyph unicode="&#xf8;" />
<glyph unicode="&#xf9;" horiz-adv-x="1167" d="M82 301v778q0 23 14.5 37t36.5 14h199q20 0 35.5 -14t15.5 -37l-2 -1079q-123 0 -211 88t-88 213zM348 1563q0 35 39 34h199q20 0 39.5 -14t25.5 -35l64 -190q2 -4 2 -15q0 -33 -37 -32h-199q-23 0 -42 13t-25 34l-64 190q-2 5 -2 15zM532 51v199q0 20 14.5 35.5 t35.5 15.5h153q23 0 37 15.5t14 35.5v727q0 23 14.5 37t37.5 14h198q20 0 35.5 -14t15.5 -37l3 -780q0 -123 -88.5 -211t-210.5 -88h-209q-20 0 -35 15.5t-15 35.5z" />
<glyph unicode="&#xfa;" horiz-adv-x="1167" d="M82 301v778q0 23 14.5 37t36.5 14h199q20 0 35.5 -14t15.5 -37l-2 -1079q-123 0 -211 88t-88 213zM469 1346q0 10 2 14l64 190q6 20 25.5 34.5t39.5 14.5h199q39 0 39 -34q0 -10 -2 -15l-64 -190q-6 -20 -25.5 -33.5t-41.5 -13.5h-199q-37 0 -37 33zM532 51v199 q0 20 14.5 35.5t35.5 15.5h153q23 0 37 15.5t14 35.5v727q0 23 14.5 37t37.5 14h198q20 0 35.5 -14t15.5 -37l3 -780q0 -123 -88.5 -211t-210.5 -88h-209q-20 0 -35 15.5t-15 35.5z" />
<glyph unicode="&#xfb;" horiz-adv-x="1167" d="M82 301v778q0 23 14.5 37t36.5 14h199q20 0 35.5 -14t15.5 -37l-2 -1079q-123 0 -211 88t-88 213zM123 1335q0 12 8 21l139 190q29 39 80 39h471q51 0 80 -39l139 -190q8 -8 9 -21q0 -23 -29 -22h-201q-47 0 -80 41l-125 172q-10 16 -28 16q-20 0 -31 -16l-125 -172 q-10 -16 -34.5 -28.5t-45.5 -12.5h-198q-29 -1 -29 22zM532 51v199q0 20 14.5 35.5t35.5 15.5h153q23 0 37 15.5t14 35.5v727q0 23 14.5 37t37.5 14h198q20 0 35.5 -14t15.5 -37l3 -780q0 -123 -88.5 -211t-210.5 -88h-209q-20 0 -35 15.5t-15 35.5z" />
<glyph unicode="&#xfc;" horiz-adv-x="1167" d="M82 301v778q0 23 14.5 37t36.5 14h199q20 0 35.5 -14t15.5 -37l-2 -1079q-123 0 -211 88t-88 213zM264 1440q0 45 27.5 80.5t70.5 48.5v-258q-43 10 -70.5 47t-27.5 82zM438 1313v254q41 -12 67.5 -47t26.5 -80t-26.5 -80t-67.5 -47zM532 51v199q0 20 14.5 35.5 t35.5 15.5h153q23 0 37 15.5t14 35.5v727q0 23 14.5 37t37.5 14h198q20 0 35.5 -14t15.5 -37l3 -780q0 -123 -88.5 -211t-210.5 -88h-209q-20 0 -35 15.5t-15 35.5zM649 1440q0 45 29 80.5t72 48.5v-258q-43 10 -72 47t-29 82zM823 1313v254q41 -12 68 -47t27 -80t-27 -80 t-68 -47z" />
<glyph unicode="&#xfd;" horiz-adv-x="1124" d="M68 -184q0 20 15 35.5t36 15.5h198q25 0 37.5 -15.5t14.5 -33t14 -32.5t37 -15h125q20 0 35.5 -14.5t15.5 -37.5v-198q0 -20 -15.5 -35.5t-35.5 -15.5h-74h-102q-125 0 -213 88t-88 211v47zM68 291v784q0 23 15 37t36 14h198q23 0 37.5 -14t14.5 -37v-774h176 q20 0 35.5 -15.5t15.5 -35.5v-199q0 -23 -15.5 -37t-35.5 -14h-176q-121 0 -210 85t-91 206zM469 1350q0 8 2 12l51 162q6 20 26.5 34.5t41.5 14.5h198q37 0 37 -35q0 -8 -2 -14l-51 -162q-14 -47 -65 -47h-199q-39 0 -39 35zM748 -530l2 1605q0 23 14 37t37 14h198 q20 0 36 -14t16 -37v-1306q0 -125 -88.5 -212t-210.5 -87h-4z" />
<glyph unicode="&#xfe;" horiz-adv-x="1075" d="M106 49v1299q0 20 14.5 35.5t37.5 15.5h198q20 0 35 -15.5t15 -35.5v-1299q0 -20 -14.5 -35.5t-35.5 -15.5h-198q-23 0 -37.5 15.5t-14.5 35.5zM520 885v198q0 23 14.5 37.5t36.5 14.5h109q125 0 212 -87t87 -212v-338q0 -127 -87 -215t-212 -88h-105q-23 0 -37 15 t-14 36v198q0 23 14.5 37.5t36.5 14.5h54q20 0 34.5 16t14.5 35q-12 10 -1 73.5t2 138.5t-52 75h-56q-23 0 -37 15.5t-14 35.5z" />
<glyph unicode="&#xff;" horiz-adv-x="1124" d="M70 -135h301v-96h227v-301h-227q-125 0 -213 88t-88 211v98zM70 297l6 827h301l-6 -825h227v-301h-227q-123 0 -212 88t-89 211zM242 1440q0 45 27.5 80.5t70.5 48.5v-258q-43 10 -70.5 47t-27.5 82zM416 1313v254q41 -12 67.5 -47t26.5 -80t-26.5 -80t-67.5 -47z M627 1440q0 45 28.5 80.5t71.5 48.5v-258q-43 10 -71.5 47t-28.5 82zM750 -532l2 1656h301v-1357q0 -123 -88 -211t-211 -88h-4zM801 1313v254q41 -12 67.5 -47t26.5 -80t-26.5 -80t-67.5 -47z" />
<glyph unicode="&#x152;" horiz-adv-x="1902" d="M80 299l2 1028v51q0 125 88 211t213 86v-51v-1622h-6q-123 0 -210 86t-87 211zM532 53v199q0 20 14.5 35.5t35.5 15.5h202q20 0 36 15.5t16 35.5l2 971q0 23 -14.5 37t-35.5 14h-206q-20 0 -35 15.5t-15 35.5v197q0 20 14.5 35.5t35.5 15.5h505q20 0 35 -15t15 -36v-1571 q0 -20 -14.5 -35.5t-35.5 -15.5h-505q-20 0 -35 15.5t-15 35.5zM1290 51v197q0 20 14.5 35.5t34.5 15.5h430q20 0 36 -15.5t16 -35.5v-197q0 -20 -15.5 -35.5t-36.5 -15.5h-430q-20 0 -34.5 15.5t-14.5 35.5zM1290 752v200q0 20 14.5 36t34.5 16h357q20 0 34.5 -15.5 t14.5 -36.5v-200q0 -20 -14.5 -36t-34.5 -16h-357q-20 0 -34.5 16t-14.5 36zM1290 1427v197q0 20 14.5 35.5t34.5 15.5h430q20 0 36 -15t16 -36v-197q0 -20 -15.5 -35.5t-36.5 -15.5h-430q-20 0 -34.5 15.5t-14.5 35.5z" />
<glyph unicode="&#x153;" horiz-adv-x="1863" d="M76 299v520q0 125 87 212t212 87v-1118q-123 0 -211 87t-88 212zM526 49v201q0 20 15.5 35.5t36.5 15.5h151q20 0 35.5 14.5t15.5 34.5v420q0 18 -15 32.5t-36 14.5h-151q-20 0 -36 15.5t-16 35.5v201q0 20 15.5 34.5t36.5 14.5h204q78 0 148 -37q76 41 149 41h2v-282 v-13v-528q0 -20 -2 -31v-270q-82 0 -151 41q-68 -39 -146 -39h-204q-20 0 -36 14.5t-16 34.5zM1233 49v201q0 20 15.5 34.5t35.5 14.5h467q33 0 33 -29q0 -111 -91 -191.5t-206 -80.5h-203q-23 0 -37 15.5t-14 35.5zM1233 457v200q0 20 15.5 35t35.5 15h150q20 0 35.5 15 t15.5 36v14q0 20 -15.5 34.5t-35.5 14.5h-150q-23 0 -37 15.5t-14 35.5v201q0 18 15.5 33.5t35.5 15.5h203q123 0 209 -85t90 -208v-122q0 -125 -87 -213t-212 -88h-203q-23 0 -37 14t-14 37z" />
<glyph unicode="&#x178;" horiz-adv-x="1218" d="M96 1077v551q0 23 15.5 37t35.5 14h201q20 0 35.5 -14t15.5 -37v-432q0 -49 35 -88l348 -363q16 -16 17 -36q0 -12 -21.5 -50t-21.5 -67v-541q0 -20 -14.5 -35.5t-34.5 -15.5h-201q-23 0 -37 14.5t-14 36.5v541q0 53 -35 88l-289 309q-35 39 -35 88zM307 1896.5 q0 45.5 27.5 81t71.5 47.5v-258q-43 10 -71 47t-28 82.5zM481 1769v254q41 -12 67.5 -46.5t26.5 -80t-26.5 -80.5t-67.5 -47zM692 1896.5q0 45.5 29 81t72 47.5v-258q-43 10 -72 47t-29 82.5zM731 1038.5q0 18.5 14 36.5l33 33q35 35 35 88v432q0 23 15.5 37t35.5 14h197 q20 0 35.5 -14t15.5 -37v-551q0 -49 -35 -88l-123 -133q-12 -14 -34 -14q-20 0 -35 14l-140 145q-14 19 -14 37.5zM866 1769v254q41 -12 68 -46.5t27 -80t-27 -80.5t-68 -47z" />
<glyph unicode="&#x2c6;" horiz-adv-x="1081" d="M76 1786q0 10 8 20l137 191q31 41 82 41h471q51 0 82 -41l137 -191q8 -10 8 -20q0 -20 -28 -21h-199q-51 0 -82 41l-123 170q-10 16 -30.5 16.5t-30.5 -16.5l-123 -170q-31 -41 -82 -41h-199q-28 1 -28 21z" />
<glyph unicode="&#x2dc;" horiz-adv-x="1222" d="M41 1958v22q0 20 14.5 36t34.5 16h463q20 0 35.5 -14.5t15.5 -37.5v-38q0 -20 15.5 -36t35.5 -16h465q23 0 37 -15t14 -36v-24q0 -20 -15 -35t-36 -15h-592q-20 0 -35.5 14.5t-15.5 35.5v40q0 20 -15.5 36t-35.5 16h-336q-20 0 -34.5 15.5t-14.5 35.5z" />
<glyph unicode="&#x2000;" horiz-adv-x="1132" />
<glyph unicode="&#x2001;" horiz-adv-x="2265" />
<glyph unicode="&#x2002;" horiz-adv-x="1132" />
<glyph unicode="&#x2003;" horiz-adv-x="2265" />
<glyph unicode="&#x2004;" horiz-adv-x="753" />
<glyph unicode="&#x2005;" horiz-adv-x="565" />
<glyph unicode="&#x2006;" horiz-adv-x="376" />
<glyph unicode="&#x2007;" horiz-adv-x="376" />
<glyph unicode="&#x2008;" horiz-adv-x="282" />
<glyph unicode="&#x2009;" horiz-adv-x="452" />
<glyph unicode="&#x200a;" horiz-adv-x="124" />
<glyph unicode="&#x2010;" horiz-adv-x="841" d="M41 756v198q0 20 14.5 36t36.5 16h651q23 0 37.5 -15.5t14.5 -36.5v-198q0 -23 -14.5 -37t-37.5 -14h-651q-23 0 -37 14t-14 37z" />
<glyph unicode="&#x2011;" horiz-adv-x="841" d="M41 756v198q0 20 14.5 36t36.5 16h651q23 0 37.5 -15.5t14.5 -36.5v-198q0 -23 -14.5 -37t-37.5 -14h-651q-23 0 -37 14t-14 37z" />
<glyph unicode="&#x2012;" horiz-adv-x="841" d="M41 756v198q0 20 14.5 36t36.5 16h651q23 0 37.5 -15.5t14.5 -36.5v-198q0 -23 -14.5 -37t-37.5 -14h-651q-23 0 -37 14t-14 37z" />
<glyph unicode="&#x2013;" />
<glyph unicode="&#x2014;" />
<glyph unicode="&#x2018;" horiz-adv-x="677" d="M133 1640q0 33 37 33h199q23 0 42 -13t25 -34l123 -395q2 -4 2 -12q0 -37 -37 -37h-200q-20 0 -40 14t-26 35l-123 395q-2 6 -2 14z" />
<glyph unicode="&#x2019;" horiz-adv-x="677" d="M129 1223q0 10 2 14l123 395q14 47 65 47h201q37 0 37 -32q0 -10 -2 -15l-123 -395q-6 -20 -26.5 -34.5t-40.5 -14.5h-199q-37 0 -37 35z" />
<glyph unicode="&#x201a;" />
<glyph unicode="&#x201c;" horiz-adv-x="841" d="M2 1640q0 33 37 33h199q23 0 42 -13t25 -34l123 -395q2 -4 2 -12q0 -37 -37 -37h-200q-20 0 -40 14t-26 35l-123 395q-2 6 -2 14zM410 1640q0 33 36 33h199q23 0 42.5 -13t25.5 -34l123 -395q2 -4 2 -12q0 -37 -37 -37h-201q-20 0 -39.5 14t-25.5 35l-123 395q-2 6 -2 14 z" />
<glyph unicode="&#x201d;" horiz-adv-x="841" d="M8 1223q0 10 2 14l123 395q14 47 66 47h200q37 0 37 -32q0 -10 -2 -15l-123 -395q-6 -20 -26.5 -34.5t-40.5 -14.5h-199q-37 0 -37 35zM406 1223q0 10 2 14l122 395q14 47 66 47h201q37 0 37 -32q0 -10 -3 -15l-122 -395q-6 -20 -26.5 -34.5t-41.5 -14.5h-199 q-36 0 -36 35z" />
<glyph unicode="&#x201e;" horiz-adv-x="1032" d="M72 -129q0 10 2 14l125 396q14 47 65 47h199q39 0 39 -33q0 -10 -2 -14l-125 -396q-6 -20 -25.5 -34.5t-40.5 -14.5h-198q-39 0 -39 35zM502 -129q0 10 2 14l125 396q14 47 65 47h199q39 0 39 -33q0 -10 -2 -14l-125 -396q-6 -20 -25.5 -34.5t-40.5 -14.5h-198 q-39 0 -39 35z" />
<glyph unicode="&#x2022;" horiz-adv-x="1191" d="M63 825q0 186 110 327.5t284 188.5v-1028q-172 43 -283 185.5t-111 326.5zM760 317v1020q164 -53 268.5 -193t104.5 -319q0 -176 -105.5 -315.5t-267.5 -192.5z" />
<glyph unicode="&#x2026;" horiz-adv-x="1527" d="M156 49v217q0 20 14 35.5t35 15.5h198q20 0 36 -15t16 -36v-217q0 -20 -15.5 -34.5t-36.5 -14.5h-198q-20 0 -34.5 14.5t-14.5 34.5zM614 49v217q0 20 15.5 35.5t36.5 15.5h198q20 0 35.5 -15t15.5 -36v-217q0 -20 -15 -34.5t-36 -14.5h-198q-20 0 -36 14.5t-16 34.5z M1079 49v217q0 20 14.5 35.5t34.5 15.5h199q20 0 35.5 -15t15.5 -36v-217q0 -20 -15 -34.5t-36 -14.5h-199q-20 0 -34.5 14.5t-14.5 34.5z" />
<glyph unicode="&#x202f;" horiz-adv-x="452" />
<glyph unicode="&#x2039;" horiz-adv-x="1210" d="M131 723v192q0 51 41 78l879 600q10 8 22 9q20 0 21 -29v-264q0 -51 -43 -80l-559 -383q-16 -10 -17 -27q0 -18 17 -31l559 -380q47 -31 43 -78v-264q0 -29 -23 -29q-8 0 -20 6l-879 600q-41 31 -41 80z" />
<glyph unicode="&#x203a;" horiz-adv-x="1210" d="M129 72v262q0 53 43 80l559 383q16 10 16.5 28.5t-16.5 28.5l-559 381q-43 31 -43 80v264q0 29 23 29q12 0 20 -9l879 -600q43 -27 43 -79v-191q0 -49 -43 -80l-879 -600q-8 -6 -20 -6q-23 0 -23 29z" />
<glyph unicode="&#x205f;" horiz-adv-x="565" />
<glyph unicode="&#x20ac;" horiz-adv-x="1308" d="M35 750v198q0 20 15.5 35.5t35.5 15.5h772q20 0 35.5 -15t15.5 -36v-198q0 -20 -15 -36t-36 -16h-772q-20 0 -35.5 16t-15.5 36zM152 299v195q0 20 15 35.5t36 15.5h200q20 0 35 -15.5t15 -35.5v-105v-90h51h57q20 0 34.5 -15.5t14.5 -35.5v-199q0 -20 -14 -35.5 t-35 -15.5h-37h-73q-123 0 -211 89t-88 212zM158 1196v68v112q0 125 87 212t212 87h104q20 0 34.5 -15t14.5 -36v-199q0 -20 -14 -35.5t-35 -15.5h-41h-61v-51v-127q0 -20 -15.5 -35.5t-35.5 -15.5h-201q-20 0 -34.5 15.5t-14.5 35.5zM453 389v4v-4zM764 49v199 q0 23 14.5 38t34.5 13l45 -2l51 2v129q0 20 14.5 35.5t34.5 15.5h201q20 0 35.5 -15t15.5 -36v-29v-102q0 -123 -88 -211t-213 -88h-96q-20 0 -34.5 15.5t-14.5 35.5zM764 1425v199q0 20 14.5 35.5t34.5 15.5h51h51q121 0 207 -86t90 -207v-8v-123q0 -20 -14 -35.5 t-35 -15.5l-200 2q-20 0 -36 15.5t-16 35.5v41v80h-47h-2h-49q-20 0 -34.5 15.5t-14.5 35.5z" />
<glyph unicode="&#x2122;" horiz-adv-x="1413" d="M55 1126v107q0 20 19 20h674q20 0 28 -18l271 -522q4 -4 4 -19q0 -12 -4 -18l-66 -131q-4 -8 -10 -8q-4 0 -8 8l-193 377q-2 8 -6 8t-4 -10v-480q0 -20 -19 -20h-110q-20 0 -21 20v645q0 20 -18 21h-518q-19 0 -19 20zM217 436v574q0 20 21 20h110q18 0 19 -20v-574 q0 -20 -19 -20h-110q-21 0 -21 20zM1020 942q0 14 2 19l141 276q8 18 29 18h113h22q6 -2 6 -22v-793q0 -20 -20 -20h-111q-20 0 -20 20v480l-2 16l-2 -2l-2 -2l-9 -17l-61 -118q-4 -8 -8 -9q-6 0 -11 9l-65 127q-2 6 -2 18z" />
<glyph unicode="&#xe000;" horiz-adv-x="1125" d="M0 1125h1125v-1125h-1125v1125z" />
<glyph unicode="&#xfb01;" horiz-adv-x="1085" d="M47 874v201q0 35 41 49.5t41 51.5v188q0 123 88 211t211 88h317q20 0 35 -14.5t15 -34.5v-201q0 -20 -14.5 -35.5t-35.5 -15.5h-264q-20 0 -35.5 -14.5t-15.5 -34.5v-1260q0 -20 -14.5 -35.5t-34.5 -15.5h-201q-20 0 -35.5 15.5t-15.5 35.5v721q0 35 -41 49t-41 51z M662 49l2 1028q0 20 15 35.5t36 15.5h196q20 0 36 -15t16 -36v-1028q0 -20 -15.5 -34.5t-36.5 -14.5h-200q-20 0 -34.5 14.5t-14.5 34.5z" />
<glyph unicode="&#xfb02;" horiz-adv-x="1085" d="M47 874v201q0 35 41 49.5t41 51.5v188q0 123 88 211t211 88h317q20 0 35 -14.5t15 -34.5v-201q0 -20 -14.5 -35.5t-35.5 -15.5h-264q-20 0 -35.5 -14.5t-15.5 -34.5v-1260q0 -20 -14.5 -35.5t-34.5 -15.5h-201q-20 0 -35.5 15.5t-15.5 35.5v721q0 35 -41 49t-41 51z M567 1016v198q0 23 15.5 37.5t35.5 14.5h295q20 0 36 -14.5t16 -37.5v-1163q0 -23 -15.5 -37t-36.5 -14h-198q-23 0 -37 14.5t-14 36.5v862q0 25 -15.5 37.5t-33 14.5t-33 14t-15.5 37z" />
<glyph unicode="&#xfb03;" horiz-adv-x="2195" d="M1823 47l2 1030q0 18 15 34.5t36 16.5h197q20 0 35.5 -16t15.5 -35v-1030q0 -18 -15.5 -32.5t-35.5 -14.5h-201q-20 0 -34.5 14.5t-14.5 32.5zM1823 1307v114q0 20 14 36t35 16h201q20 0 35.5 -15.5t15.5 -36.5v-114q0 -20 -14.5 -35t-36.5 -15h-201q-20 0 -34.5 15 t-14.5 35zM921 874v201q0 35 41 49.5t41 51.5v188q0 123 88 211t211 88h317q20 0 35 -14.5t15 -34.5v-201q0 -20 -14.5 -35.5t-35.5 -15.5h-264q-20 0 -35.5 -14.5t-15.5 -34.5v-1260q0 -20 -14.5 -35.5t-34.5 -15.5h-201q-20 0 -35.5 15.5t-15.5 35.5v721q0 35 -41 49 t-41 51zM1456 874v201q0 20 15 34.5t36 14.5h108q20 0 36 -14t16 -35v-201q0 -20 -15.5 -35.5t-36.5 -15.5h-108q-20 0 -35.5 15.5t-15.5 35.5zM47 874v201q0 35 41 49.5t41 51.5v188q0 123 88 211t211 88h317q20 0 35 -14.5t15 -34.5v-201q0 -20 -14.5 -35.5t-35.5 -15.5 h-264q-20 0 -35.5 -14.5t-15.5 -34.5v-1260q0 -20 -14.5 -35.5t-34.5 -15.5h-201q-20 0 -35.5 15.5t-15.5 35.5v721q0 35 -41 49t-41 51zM582 874v201q0 20 15 34.5t36 14.5h108q20 0 36 -14t16 -35v-201q0 -20 -15.5 -35.5t-36.5 -15.5h-108q-20 0 -35.5 15.5t-15.5 35.5z " />
<glyph unicode="&#xfb04;" horiz-adv-x="2265" d="M1794 1354v198q0 20 14.5 36t36.5 16h295q23 0 37 -15.5t14 -36.5v-1501q0 -23 -14 -37t-37 -14h-198q-20 0 -36 14.5t-16 36.5v1200q0 25 -15 37t-32.5 14.5t-33 14.5t-15.5 37zM921 874v201q0 35 41 49.5t41 51.5v188q0 123 88 211t211 88h317q20 0 35 -14.5t15 -34.5 v-201q0 -20 -14.5 -35.5t-35.5 -15.5h-264q-20 0 -35.5 -14.5t-15.5 -34.5v-1260q0 -20 -14.5 -35.5t-34.5 -15.5h-201q-20 0 -35.5 15.5t-15.5 35.5v721q0 35 -41 49t-41 51zM1456 874v201q0 20 15 34.5t36 14.5h108q20 0 36 -14t16 -35v-201q0 -20 -15.5 -35.5 t-36.5 -15.5h-108q-20 0 -35.5 15.5t-15.5 35.5zM47 874v201q0 35 41 49.5t41 51.5v188q0 123 88 211t211 88h317q20 0 35 -14.5t15 -34.5v-201q0 -20 -14.5 -35.5t-35.5 -15.5h-264q-20 0 -35.5 -14.5t-15.5 -34.5v-1260q0 -20 -14.5 -35.5t-34.5 -15.5h-201 q-20 0 -35.5 15.5t-15.5 35.5v721q0 35 -41 49t-41 51zM582 874v201q0 20 15 34.5t36 14.5h108q20 0 36 -14t16 -35v-201q0 -20 -15.5 -35.5t-36.5 -15.5h-108q-20 0 -35.5 15.5t-15.5 35.5z" />
<glyph horiz-adv-x="806" />
</font>
</defs>
</svg>
